<svg width="168" height="24" viewBox="0 0 168 24" fill="none" xmlns="http://www.w3.org/2000/svg">
<path d="M22 12.3038C22 6.74719 17.5229 2.24268 12 2.24268C6.47715 2.24268 2 6.74719 2 12.3038C2 17.3255 5.65684 21.4879 10.4375 22.2427V15.2121H7.89844V12.3038H10.4375V10.0872C10.4375 7.56564 11.9305 6.1728 14.2146 6.1728C15.3088 6.1728 16.4531 6.36931 16.4531 6.36931V8.84529H15.1922C13.95 8.84529 13.5625 9.6209 13.5625 10.4166V12.3038H16.3359L15.8926 15.2121H13.5625V22.2427C18.3432 21.4879 22 17.3257 22 12.3038Z" fill="white"/>
<path fill-rule="evenodd" clip-rule="evenodd" d="M52 3.24268H44C41.2386 3.24268 39 5.48126 39 8.24268V16.2427C39 19.0041 41.2386 21.2427 44 21.2427H52C54.7614 21.2427 57 19.0041 57 16.2427V8.24268C57 5.48126 54.7614 3.24268 52 3.24268ZM55.25 16.2427C55.2445 18.0353 53.7926 19.4872 52 19.4927H44C42.2074 19.4872 40.7555 18.0353 40.75 16.2427V8.24268C40.7555 6.45003 42.2074 4.99817 44 4.99268H52C53.7926 4.99817 55.2445 6.45003 55.25 8.24268V16.2427ZM52.75 8.49268C53.3023 8.49268 53.75 8.04496 53.75 7.49268C53.75 6.9404 53.3023 6.49268 52.75 6.49268C52.1977 6.49268 51.75 6.9404 51.75 7.49268C51.75 8.04496 52.1977 8.49268 52.75 8.49268ZM48 7.74268C45.5147 7.74268 43.5 9.7574 43.5 12.2427C43.5 14.728 45.5147 16.7427 48 16.7427C50.4853 16.7427 52.5 14.728 52.5 12.2427C52.5027 11.0484 52.0294 9.90225 51.1849 9.05776C50.3404 8.21327 49.1943 7.74002 48 7.74268ZM45.25 12.2427C45.25 13.7615 46.4812 14.9927 48 14.9927C49.5188 14.9927 50.75 13.7615 50.75 12.2427C50.75 10.7239 49.5188 9.49268 48 9.49268C46.4812 9.49268 45.25 10.7239 45.25 12.2427Z" fill="white"/>
<path d="M89.1761 4.24268H91.9362L85.9061 11.0201L93 20.2427H87.4456L83.0951 14.6493L78.1172 20.2427H75.3554L81.8052 12.9935L75 4.24268H80.6954L84.6279 9.3553L89.1761 4.24268ZM88.2073 18.6181H89.7368L79.8644 5.78196H78.2232L88.2073 18.6181Z" fill="white"/>
<path fill-rule="evenodd" clip-rule="evenodd" d="M112.5 3.24268C111.672 3.24268 111 3.91425 111 4.74268V19.7427C111 20.5711 111.672 21.2427 112.5 21.2427H127.5C128.328 21.2427 129 20.5711 129 19.7427V4.74268C129 3.91425 128.328 3.24268 127.5 3.24268H112.5ZM116.521 7.2454C116.526 8.20165 115.811 8.79087 114.961 8.78665C114.161 8.78243 113.464 8.1454 113.468 7.24681C113.472 6.40165 114.14 5.72243 115.008 5.74212C115.888 5.76181 116.526 6.40728 116.521 7.2454ZM120.28 10.0044H117.76H117.758V18.5643H120.422V18.3646C120.422 17.9847 120.421 17.6047 120.421 17.2246C120.42 16.2108 120.419 15.1959 120.425 14.1824C120.426 13.9363 120.437 13.6804 120.5 13.4455C120.738 12.568 121.527 12.0013 122.407 12.1406C122.973 12.2291 123.347 12.5568 123.504 13.0898C123.601 13.423 123.645 13.7816 123.649 14.129C123.661 15.1766 123.659 16.2242 123.657 17.2719C123.657 17.6417 123.656 18.0117 123.656 18.3815V18.5629H126.328V18.3576C126.328 17.9056 126.328 17.4537 126.327 17.0018C126.327 15.8723 126.326 14.7428 126.329 13.6129C126.331 13.1024 126.276 12.599 126.151 12.1054C125.964 11.3713 125.577 10.7638 124.948 10.3251C124.503 10.0129 124.013 9.81178 123.466 9.78928C123.404 9.78669 123.341 9.7833 123.278 9.77989C122.998 9.76477 122.714 9.74941 122.447 9.80334C121.682 9.95662 121.01 10.3068 120.502 10.9241C120.443 10.9949 120.385 11.0668 120.299 11.1741L120.28 11.1984V10.0044ZM113.682 18.5671H116.332V10.01H113.682V18.5671Z" fill="white"/>
<path d="M165.593 7.20301C165.479 6.78041 165.256 6.39501 164.947 6.08518C164.638 5.77534 164.253 5.55187 163.831 5.43701C162.265 5.00701 156 5.00001 156 5.00001C156 5.00001 149.736 4.99301 148.169 5.40401C147.747 5.52415 147.363 5.75078 147.054 6.06214C146.744 6.3735 146.52 6.75913 146.403 7.18201C145.99 8.74801 145.986 11.996 145.986 11.996C145.986 11.996 145.982 15.26 146.392 16.81C146.622 17.667 147.297 18.344 148.155 18.575C149.737 19.005 155.985 19.012 155.985 19.012C155.985 19.012 162.25 19.019 163.816 18.609C164.238 18.4943 164.624 18.2714 164.934 17.9622C165.244 17.653 165.467 17.2682 165.583 16.846C165.997 15.281 166 12.034 166 12.034C166 12.034 166.02 8.76901 165.593 7.20301ZM153.996 15.005L154.001 9.00501L159.208 12.01L153.996 15.005Z" fill="white"/>
</svg>
