<svg width="218" height="216" viewBox="0 0 218 216" fill="none" xmlns="http://www.w3.org/2000/svg">
<rect width="217.895" height="216" rx="29" fill="#1899D6"/>
<rect width="217.895" height="208.421" rx="29" fill="#1CB0F6"/>
<path opacity="0.19" d="M178.041 93.139L173.698 100.879C172.826 102.433 173.377 104.404 174.929 105.28L182.658 109.643C184.21 110.519 186.175 109.97 187.047 108.415L191.39 100.675C192.262 99.121 191.711 97.1506 190.159 96.2743L182.43 91.9111C180.878 91.0348 178.913 91.5846 178.041 93.139Z" fill="white"/>
<path opacity="0.34" d="M62.9373 140.131L59.8594 145.617C59.2413 146.718 59.632 148.115 60.732 148.736L66.2095 151.828C67.3095 152.449 68.7023 152.06 69.3205 150.958L72.3983 145.472C73.0164 144.371 72.6257 142.974 71.5257 142.353L66.0483 139.261C64.9482 138.64 63.5554 139.029 62.9373 140.131Z" fill="white"/>
<mask id="mask0_1235_17094" style="mask-type:alpha" maskUnits="userSpaceOnUse" x="0" y="18" width="218" height="191">
<rect y="18.9453" width="217.895" height="189.88" rx="30" fill="#1CB0F6"/>
</mask>
<g mask="url(#mask0_1235_17094)">
<ellipse cx="142.757" cy="144.308" rx="114.456" ry="114.091" fill="white" fill-opacity="0.14"/>
<ellipse cx="142.754" cy="144.304" rx="87.9829" ry="87.7027" fill="white" fill-opacity="0.27"/>
<path d="M188.108 68.0734L114.167 78.1003C108.259 78.9014 104.118 84.3343 104.916 90.2351L117.849 185.832C118.647 191.733 124.083 195.867 129.99 195.066L203.932 185.039C209.839 184.238 213.981 178.805 213.182 172.905L200.25 77.3073C199.451 71.4065 194.015 67.2724 188.108 68.0734Z" fill="white"/>
<path d="M142.634 171.384C143.544 171.328 144.407 170.962 145.078 170.345C145.749 169.729 146.187 168.901 146.319 168C146.469 166.87 146.428 165.724 146.198 164.608C146.122 163.473 145.856 162.359 145.411 161.312C144.993 160.523 144.344 159.881 143.549 159.473C142.755 159.065 141.854 158.911 140.968 159.031C140.083 159.151 139.256 159.54 138.598 160.145C137.941 160.75 137.485 161.541 137.293 162.413C137.141 163.541 137.181 164.686 137.411 165.801C137.486 166.936 137.752 168.05 138.198 169.097C138.561 169.93 139.201 170.612 140.009 171.028C140.817 171.445 141.744 171.57 142.634 171.384ZM142.437 169.924C141.872 170.034 141.286 169.945 140.781 169.67C140.275 169.395 139.882 168.952 139.669 168.418C139.037 166.576 138.773 164.628 138.892 162.685C138.99 162.125 139.263 161.612 139.672 161.218C140.082 160.824 140.606 160.571 141.169 160.494C141.732 160.418 142.304 160.522 142.804 160.793C143.303 161.063 143.703 161.485 143.946 161.998C144.578 163.841 144.842 165.789 144.723 167.734C144.657 168.308 144.392 168.84 143.975 169.24C143.557 169.64 143.014 169.882 142.437 169.924ZM150.266 170.241C150.369 170.229 150.467 170.196 150.556 170.144C150.645 170.091 150.722 170.02 150.781 169.936C150.841 169.852 150.882 169.756 150.902 169.655C150.923 169.554 150.921 169.45 150.898 169.35L150.346 165.268C150.156 163.861 150.523 162.736 151.791 162.564C152.125 162.527 152.464 162.554 152.788 162.645C152.913 162.68 153.043 162.693 153.172 162.681C153.27 162.671 153.366 162.642 153.452 162.593C153.539 162.545 153.615 162.48 153.675 162.401C153.735 162.322 153.778 162.232 153.801 162.136C153.825 162.04 153.828 161.94 153.811 161.842C153.792 161.707 153.733 161.581 153.643 161.478C153.553 161.376 153.435 161.302 153.303 161.266C152.892 161.109 152.447 161.064 152.013 161.137C151.564 161.177 151.136 161.348 150.783 161.629C150.43 161.909 150.166 162.286 150.025 162.714L150.007 162.719L149.955 162.332C149.948 162.23 149.92 162.131 149.873 162.04C149.826 161.949 149.76 161.869 149.681 161.804C149.602 161.74 149.51 161.692 149.411 161.664C149.313 161.637 149.21 161.63 149.108 161.643C149.007 161.657 148.909 161.691 148.822 161.744C148.734 161.797 148.658 161.868 148.599 161.951C148.54 162.034 148.498 162.129 148.477 162.229C148.455 162.329 148.455 162.432 148.475 162.532L149.425 169.553C149.43 169.655 149.457 169.755 149.503 169.846C149.549 169.937 149.614 170.018 149.693 170.082C149.772 170.147 149.864 170.195 149.963 170.222C150.061 170.249 150.165 170.255 150.266 170.24L150.266 170.241ZM162.896 167.385L162.523 166.88C162.357 166.63 162.261 166.339 162.248 166.039L161.839 163.014C161.558 160.937 160.356 160.007 158.102 160.314C157.197 160.397 156.334 160.738 155.617 161.296C155.517 161.369 155.439 161.467 155.391 161.581C155.344 161.695 155.328 161.82 155.346 161.942C155.352 162.027 155.375 162.11 155.416 162.186C155.456 162.261 155.513 162.327 155.581 162.379C155.649 162.431 155.728 162.467 155.811 162.486C155.895 162.505 155.982 162.505 156.065 162.487C156.212 162.457 156.35 162.395 156.471 162.307C156.971 161.966 157.541 161.742 158.139 161.65C159.619 161.45 160.255 162.044 160.415 163.223L160.469 163.628C160.474 163.642 160.475 163.657 160.473 163.672C160.471 163.687 160.464 163.7 160.455 163.712C160.446 163.724 160.434 163.733 160.421 163.739C160.407 163.745 160.392 163.748 160.377 163.747L158.459 164.007C156.362 164.291 155.282 165.316 155.518 167.061C155.735 168.662 156.953 169.445 158.838 169.191C159.322 169.162 159.794 169.026 160.218 168.792C160.643 168.557 161.01 168.231 161.291 167.836L161.308 167.831L161.714 168.314C161.798 168.416 161.906 168.496 162.029 168.545C162.152 168.594 162.285 168.611 162.416 168.595C162.513 168.588 162.608 168.561 162.695 168.516C162.781 168.471 162.858 168.409 162.92 168.333C162.982 168.258 163.028 168.171 163.055 168.077C163.082 167.983 163.09 167.885 163.077 167.788C163.052 167.639 162.989 167.498 162.895 167.379L162.896 167.385ZM158.877 167.894C157.75 168.047 157.056 167.694 156.936 166.813C156.808 165.864 157.403 165.353 158.847 165.157L160.537 164.927C160.551 164.924 160.566 164.923 160.58 164.926C160.594 164.929 160.608 164.935 160.619 164.944C160.631 164.953 160.64 164.964 160.646 164.977C160.653 164.99 160.656 165.005 160.656 165.019L160.783 165.952C160.922 166.985 160.179 167.715 158.876 167.891L158.877 167.894ZM165.312 167.398C165.319 167.5 165.347 167.599 165.394 167.69C165.441 167.781 165.506 167.861 165.585 167.925C165.665 167.99 165.756 168.038 165.855 168.065C165.953 168.093 166.057 168.1 166.158 168.086C166.259 168.073 166.357 168.038 166.445 167.985C166.532 167.932 166.608 167.862 166.667 167.779C166.727 167.695 166.768 167.601 166.79 167.501C166.811 167.401 166.811 167.297 166.791 167.197L166.184 162.711C166.124 162.449 166.12 162.176 166.173 161.912C166.225 161.647 166.333 161.397 166.49 161.178C166.646 160.958 166.848 160.774 167.081 160.638C167.313 160.501 167.572 160.416 167.841 160.387C169.109 160.215 169.833 160.922 170.016 162.277L170.612 166.679C170.619 166.781 170.647 166.881 170.694 166.971C170.741 167.062 170.806 167.142 170.886 167.207C170.965 167.271 171.057 167.319 171.155 167.347C171.254 167.374 171.357 167.382 171.458 167.368C171.56 167.354 171.657 167.32 171.745 167.267C171.833 167.214 171.908 167.144 171.968 167.06C172.027 166.977 172.069 166.882 172.09 166.782C172.111 166.682 172.112 166.579 172.092 166.479L171.448 161.729C171.189 159.812 169.928 158.711 168.097 158.959C167.634 158.993 167.187 159.145 166.801 159.402C166.414 159.659 166.1 160.011 165.89 160.424L165.873 160.429L165.839 160.183C165.832 160.081 165.804 159.982 165.757 159.891C165.71 159.8 165.645 159.72 165.565 159.655C165.486 159.591 165.394 159.543 165.296 159.515C165.197 159.488 165.094 159.481 164.993 159.494C164.891 159.508 164.794 159.542 164.706 159.595C164.618 159.648 164.543 159.719 164.483 159.802C164.424 159.885 164.382 159.98 164.361 160.08C164.34 160.18 164.339 160.283 164.359 160.383L165.312 167.398ZM178.918 158.618C178.609 158.274 178.212 158.019 177.771 157.88C177.329 157.742 176.858 157.724 176.407 157.829C175.764 157.892 175.161 158.172 174.697 158.623C174.234 159.073 173.937 159.668 173.857 160.309C173.672 161.778 173.875 163.269 174.443 164.636C174.691 165.232 175.135 165.726 175.702 166.037C176.269 166.347 176.925 166.456 177.562 166.344C178.027 166.337 178.48 166.199 178.871 165.946C179.262 165.694 179.573 165.337 179.771 164.916L179.788 164.911L179.911 165.826C180.129 167.443 179.429 168.219 178.072 168.403C177.468 168.482 176.855 168.364 176.323 168.068C176.135 167.953 175.914 167.901 175.693 167.92C175.604 167.932 175.517 167.961 175.439 168.007C175.361 168.052 175.292 168.114 175.239 168.186C175.185 168.259 175.146 168.342 175.125 168.43C175.104 168.518 175.102 168.609 175.117 168.699C175.147 168.878 175.246 169.038 175.393 169.144C176.214 169.708 177.221 169.936 178.206 169.783C180.544 169.466 181.714 168.017 181.375 165.502L180.386 158.201C180.379 158.099 180.351 158 180.304 157.909C180.257 157.818 180.192 157.738 180.112 157.674C180.033 157.609 179.941 157.562 179.843 157.534C179.744 157.506 179.641 157.499 179.539 157.513C179.438 157.527 179.34 157.561 179.253 157.614C179.165 157.667 179.089 157.737 179.03 157.82C178.971 157.904 178.929 157.998 178.908 158.098C178.887 158.198 178.886 158.302 178.906 158.402L178.936 158.613L178.918 158.618ZM177.764 164.937C177.361 165.018 176.941 164.954 176.58 164.758C176.218 164.561 175.937 164.244 175.786 163.862C175.563 163.369 175.426 162.843 175.378 162.305C175.283 161.779 175.277 161.24 175.36 160.712C175.428 160.313 175.622 159.947 175.913 159.665C176.204 159.384 176.577 159.203 176.978 159.149C177.379 159.095 177.787 159.17 178.142 159.364C178.497 159.557 178.781 159.859 178.952 160.226C179.349 161.223 179.496 162.303 179.378 163.37C179.333 163.778 179.147 164.157 178.852 164.442C178.557 164.727 178.171 164.901 177.762 164.932L177.764 164.937ZM187.52 165.297C188.645 165.163 189.674 164.6 190.392 163.725C190.455 163.648 190.502 163.558 190.529 163.462C190.556 163.366 190.564 163.266 190.551 163.167C190.542 163.085 190.516 163.006 190.475 162.935C190.435 162.863 190.38 162.801 190.315 162.751C190.249 162.701 190.174 162.665 190.094 162.645C190.015 162.625 189.932 162.621 189.85 162.634C189.662 162.668 189.491 162.767 189.368 162.915C188.865 163.466 188.181 163.819 187.44 163.911C186.977 164.009 186.494 163.946 186.071 163.733C185.648 163.52 185.31 163.17 185.112 162.74C184.965 162.424 184.871 162.085 184.834 161.739C184.829 161.724 184.828 161.709 184.83 161.695C184.833 161.68 184.839 161.666 184.848 161.654C184.857 161.643 184.869 161.633 184.883 161.627C184.896 161.621 184.911 161.619 184.926 161.62L189.873 160.947C189.95 160.943 190.025 160.922 190.093 160.887C190.162 160.851 190.222 160.801 190.27 160.74C190.317 160.68 190.352 160.61 190.37 160.535C190.389 160.46 190.391 160.382 190.378 160.306C190.305 159.612 190.117 158.935 189.821 158.303C189.471 157.673 188.939 157.164 188.294 156.842C187.65 156.521 186.922 156.401 186.208 156.5C185.494 156.599 184.826 156.911 184.293 157.396C183.76 157.881 183.385 158.516 183.22 159.217C183.051 160.663 183.255 162.128 183.814 163.472C184.129 164.153 184.669 164.706 185.343 165.037C186.017 165.368 186.785 165.458 187.518 165.291L187.52 165.297ZM184.765 160.441C184.751 160.445 184.735 160.447 184.721 160.444C184.706 160.442 184.692 160.436 184.68 160.427C184.669 160.418 184.659 160.406 184.653 160.392C184.647 160.378 184.645 160.364 184.646 160.349C184.592 160.029 184.59 159.703 184.64 159.383C184.74 158.973 184.961 158.603 185.275 158.321C185.589 158.039 185.98 157.858 186.399 157.801C186.817 157.744 187.242 157.815 187.62 158.003C187.997 158.192 188.309 158.489 188.514 158.857C188.648 159.153 188.733 159.468 188.766 159.791C188.77 159.805 188.771 159.82 188.768 159.834C188.765 159.848 188.759 159.862 188.75 159.873C188.741 159.885 188.729 159.894 188.716 159.9C188.703 159.907 188.689 159.91 188.674 159.91L184.765 160.441Z" fill="#4B4B4B"/>
<path d="M173.832 138.386C178.746 137.748 183.361 135.666 187.092 132.406C190.823 129.145 193.501 124.852 194.788 120.071C196.075 115.289 195.911 110.235 194.319 105.548C192.727 100.861 189.777 96.7525 185.844 93.7437C181.91 90.7349 177.171 88.9609 172.225 88.6468C167.28 88.3326 162.352 89.4923 158.065 91.979C153.779 94.4657 150.327 98.1673 148.148 102.615C145.968 107.062 145.16 112.055 145.824 116.96C146.692 123.513 150.13 129.452 155.382 133.47C160.635 137.488 167.271 139.256 173.832 138.386Z" fill="#FF9600"/>
<path d="M185.141 117.818C185.745 117.74 186.312 117.485 186.771 117.085C187.229 116.685 187.559 116.158 187.717 115.57C187.875 114.983 187.855 114.362 187.66 113.786C187.465 113.211 187.103 112.706 186.62 112.336C186.137 111.966 185.555 111.748 184.947 111.709C184.34 111.671 183.734 111.813 183.208 112.118C182.681 112.424 182.257 112.878 181.989 113.424C181.722 113.971 181.622 114.584 181.704 115.186C181.81 115.991 182.232 116.72 182.877 117.214C183.521 117.707 184.336 117.925 185.141 117.818Z" fill="#F58000"/>
<path d="M180.343 129.537C181.248 129.419 182.098 129.036 182.785 128.435C183.473 127.834 183.966 127.043 184.203 126.162C184.44 125.282 184.41 124.35 184.116 123.487C183.823 122.624 183.279 121.867 182.555 121.313C181.83 120.758 180.957 120.432 180.046 120.374C179.135 120.316 178.227 120.53 177.437 120.988C176.648 121.446 176.012 122.128 175.61 122.947C175.209 123.766 175.06 124.686 175.182 125.59C175.342 126.797 175.976 127.891 176.944 128.631C177.911 129.371 179.134 129.697 180.343 129.537Z" fill="#F58000"/>
<path d="M121.031 119.298C121.428 122.396 122.435 125.383 123.993 128.089C125.552 130.796 127.631 133.167 130.111 135.066C132.591 136.966 135.423 138.356 138.444 139.157C141.465 139.958 144.615 140.154 147.712 139.734C150.81 139.313 153.795 138.285 156.493 136.708C159.192 135.13 161.552 133.035 163.438 130.543C165.324 128.051 166.697 125.212 167.48 122.188C168.262 119.164 168.438 116.016 167.998 112.924L121.031 119.298Z" fill="white"/>
<path d="M121.031 119.298C121.428 122.396 122.435 125.383 123.993 128.089C125.552 130.796 127.631 133.167 130.111 135.066C132.591 136.966 135.423 138.356 138.444 139.157C141.465 139.958 144.615 140.154 147.712 139.734C150.81 139.313 153.795 138.285 156.493 136.708C159.192 135.13 161.552 133.035 163.438 130.543C165.324 128.051 166.697 125.212 167.48 122.188C168.262 119.164 168.438 116.016 167.998 112.924L121.031 119.298Z" fill="#FFC800"/>
<path fill-rule="evenodd" clip-rule="evenodd" d="M131.057 130.294L133.026 131.971L145.615 117.06L143.645 115.384L131.057 130.294Z" fill="white"/>
<path fill-rule="evenodd" clip-rule="evenodd" d="M161.387 126.182L159.934 128.322L143.833 117.302L145.287 115.161L161.387 126.182Z" fill="white"/>
<path fill-rule="evenodd" clip-rule="evenodd" d="M148.718 137.002L146.16 137.348L143.533 117.975L146.091 117.628L148.718 137.002Z" fill="white"/>
<path d="M124.799 118.786C125.135 121.384 125.982 123.89 127.292 126.159C128.601 128.428 130.347 130.416 132.429 132.009C134.51 133.601 136.887 134.766 139.422 135.437C141.956 136.109 144.599 136.273 147.198 135.92C149.797 135.567 152.301 134.705 154.565 133.382C156.83 132.059 158.811 130.303 160.394 128.213C161.977 126.123 163.131 123.742 163.79 121.206C164.449 118.669 164.599 116.028 164.233 113.434" stroke="white" stroke-width="3"/>
<path d="M121.031 119.298C121.428 122.396 122.435 125.383 123.993 128.089C125.552 130.796 127.631 133.167 130.111 135.066C132.591 136.966 135.423 138.356 138.444 139.157C141.465 139.958 144.615 140.154 147.712 139.734C150.81 139.313 153.795 138.285 156.493 136.708C159.192 135.13 161.552 133.035 163.438 130.543C165.324 128.051 166.697 125.212 167.48 122.188C168.262 119.164 168.438 116.016 167.998 112.924" stroke="#FF9600" stroke-width="4"/>
<path d="M188.1 69.1282L114.449 79.1157C109.034 79.85 105.238 84.8302 105.969 90.2393L118.863 185.547C119.595 190.956 124.578 194.746 129.993 194.012L203.644 184.024C209.059 183.29 212.855 178.31 212.123 172.9L199.23 77.5926C198.498 72.1836 193.515 68.3939 188.1 69.1282Z" stroke="#E5E5E5" stroke-width="3.00087"/>
<path d="M76.3885 81.2481L9.824 117.17C4.57958 120.001 2.6222 126.541 5.45209 131.778L51.7949 217.547C54.6248 222.785 61.1703 224.736 66.4147 221.906L132.979 185.983C138.224 183.153 140.181 176.613 137.351 171.376L91.0084 85.6067C88.1785 80.3693 81.633 78.4179 76.3885 81.2481Z" fill="#DDF4FF"/>
<path d="M70.5972 194.003C70.6423 194.09 70.7046 194.166 70.7801 194.228C70.8557 194.289 70.9431 194.335 71.0368 194.361C71.1306 194.388 71.2289 194.396 71.3257 194.383C71.4225 194.371 71.5157 194.339 71.5998 194.29C71.7536 194.211 71.8767 194.084 71.9496 193.927C72.0225 193.771 72.041 193.594 72.0021 193.426L71.6161 190.992L75.979 188.636L77.8043 190.295C77.9235 190.42 78.081 190.501 78.2518 190.526C78.4226 190.55 78.5968 190.517 78.7468 190.432C78.8348 190.389 78.9132 190.329 78.977 190.255C79.0409 190.181 79.0889 190.095 79.118 190.002C79.1471 189.909 79.1568 189.811 79.1464 189.714C79.136 189.616 79.1058 189.523 79.0576 189.438C78.9957 189.333 78.9174 189.238 78.8259 189.158L70.718 181.855C70.5571 181.66 70.3342 181.526 70.0865 181.477C69.8389 181.427 69.5815 181.463 69.3574 181.58C68.8881 181.833 68.7739 182.258 68.8705 182.851L70.4879 193.657C70.5058 193.777 70.5427 193.894 70.5972 194.003ZM71.3778 189.466L70.4903 183.712L70.5372 183.686L74.8336 187.601L71.3778 189.466ZM83.3851 191.56C83.477 191.512 83.558 191.447 83.6227 191.366C83.6875 191.286 83.7344 191.192 83.7606 191.093C83.7868 190.993 83.7916 190.888 83.7746 190.787C83.7577 190.685 83.7195 190.588 83.6624 190.502L82.0334 187.488L82.0499 187.483C82.4653 187.703 82.9332 187.806 83.403 187.78C83.8729 187.754 84.3267 187.6 84.7154 187.335C85.3038 187.043 85.7777 186.562 86.0616 185.97C86.3456 185.378 86.4234 184.709 86.2827 184.068C85.9154 182.541 85.1561 181.136 84.0797 179.992C83.6205 179.523 83.0176 179.221 82.3667 179.134C81.7158 179.046 81.0542 179.179 80.4871 179.51C80.0519 179.69 79.674 179.985 79.3942 180.363C79.1144 180.742 78.9434 181.189 78.8997 181.657L78.8832 181.662L78.7737 181.459C78.7311 181.366 78.6698 181.283 78.5937 181.215C78.5175 181.147 78.4282 181.095 78.3312 181.063C78.2342 181.03 78.1315 181.018 78.0296 181.027C77.9276 181.036 77.8286 181.065 77.7385 181.114C77.6485 181.162 77.5693 181.229 77.506 181.309C77.4427 181.39 77.3966 181.482 77.3705 181.581C77.3443 181.68 77.3388 181.783 77.3541 181.884C77.3695 181.985 77.4054 182.082 77.4597 182.168L82.3457 191.212C82.3863 191.307 82.4465 191.392 82.5225 191.462C82.5984 191.533 82.6884 191.586 82.7866 191.619C82.8847 191.652 82.9886 191.663 83.0917 191.653C83.1947 191.643 83.2952 191.611 83.3851 191.56ZM83.745 186.281C83.3889 186.503 82.9674 186.597 82.5506 186.547C82.1338 186.497 81.747 186.305 81.4544 186.005C80.6839 185.126 80.1216 184.085 79.8094 182.96C79.7436 182.553 79.8062 182.136 79.9884 181.767C80.1706 181.397 80.4633 181.093 80.8261 180.898C81.1888 180.702 81.6035 180.623 82.0126 180.674C82.4217 180.724 82.8049 180.9 83.1091 181.178C83.519 181.599 83.8564 182.085 84.1078 182.615C84.4104 183.112 84.6288 183.655 84.7542 184.223C84.8463 184.63 84.7964 185.056 84.6127 185.43C84.429 185.805 84.1226 186.105 83.7443 186.282L83.745 186.281ZM91.8026 187.018C91.8946 186.971 91.9756 186.905 92.0403 186.824C92.105 186.744 92.152 186.651 92.1782 186.551C92.2044 186.451 92.2091 186.347 92.1922 186.245C92.1753 186.143 92.137 186.046 92.0799 185.96L90.451 182.946L90.4674 182.941C90.8829 183.162 91.3508 183.264 91.8206 183.238C92.2904 183.212 92.7442 183.059 93.133 182.794C93.7213 182.501 94.195 182.021 94.479 181.429C94.7629 180.837 94.8408 180.167 94.7003 179.526C94.3332 177.999 93.5742 176.594 92.4982 175.45C92.039 174.981 91.436 174.679 90.7851 174.592C90.1342 174.504 89.4726 174.637 88.9056 174.969C88.4704 175.148 88.0925 175.443 87.8128 175.821C87.533 176.2 87.362 176.647 87.3181 177.116L87.3017 177.12L87.1919 176.917C87.1491 176.824 87.0877 176.741 87.0115 176.673C86.9353 176.605 86.846 176.553 86.7491 176.521C86.6521 176.489 86.5496 176.477 86.4478 176.486C86.346 176.495 86.2471 176.525 86.1572 176.573C86.0673 176.622 85.9883 176.688 85.9251 176.768C85.8618 176.849 85.8157 176.941 85.7896 177.04C85.7634 177.138 85.7578 177.241 85.773 177.342C85.7883 177.443 85.8241 177.54 85.8782 177.627L90.7642 186.67C90.8047 186.765 90.8649 186.85 90.9409 186.921C91.0169 186.991 91.1069 187.044 91.205 187.077C91.3031 187.11 91.4071 187.122 91.5101 187.111C91.6131 187.101 91.7128 187.069 91.8026 187.018ZM92.1625 181.739C91.8065 181.962 91.385 182.056 90.9682 182.005C90.5514 181.955 90.1645 181.764 89.872 181.463C89.1013 180.585 88.5387 179.544 88.2261 178.418C88.1604 178.012 88.2229 177.595 88.4051 177.225C88.5873 176.856 88.8801 176.552 89.2428 176.356C89.6055 176.16 90.0202 176.082 90.4293 176.132C90.8384 176.182 91.2216 176.359 91.5258 176.636C91.9357 177.057 92.2732 177.543 92.5245 178.074C92.8271 178.571 93.0455 179.114 93.1709 179.682C93.2638 180.089 93.2142 180.516 93.0305 180.891C92.8468 181.266 92.54 181.568 92.1612 181.745L92.1625 181.739ZM99.9805 178.973C100.072 178.939 100.156 178.884 100.224 178.814C100.293 178.744 100.345 178.659 100.378 178.567C100.411 178.474 100.423 178.375 100.413 178.278C100.404 178.18 100.373 178.086 100.324 178.001C100.285 177.917 100.229 177.842 100.159 177.781C100.089 177.72 100.006 177.675 99.9175 177.649C99.8286 177.622 99.735 177.615 99.6431 177.627C99.5512 177.64 99.4629 177.672 99.3844 177.721C98.8679 177.999 98.5386 177.875 98.2007 177.25L93.8796 169.253C93.8367 169.16 93.7753 169.077 93.6992 169.009C93.623 168.941 93.5337 168.889 93.4367 168.857C93.3398 168.825 93.2372 168.813 93.1354 168.822C93.0336 168.831 92.9347 168.861 92.8448 168.909C92.7549 168.958 92.6759 169.024 92.6127 169.104C92.5495 169.185 92.5034 169.277 92.4772 169.376C92.4511 169.474 92.4455 169.577 92.4607 169.678C92.4759 169.779 92.5117 169.876 92.5658 169.963L96.9288 178.037C97.6548 179.38 98.4941 179.774 99.8392 179.049L99.9805 178.973ZM105.275 176.237C106.279 175.715 107.044 174.825 107.407 173.754C107.438 173.659 107.45 173.559 107.442 173.459C107.433 173.36 107.405 173.263 107.357 173.175C107.32 173.102 107.268 173.037 107.205 172.985C107.142 172.932 107.069 172.893 106.99 172.869C106.911 172.845 106.829 172.838 106.747 172.848C106.665 172.857 106.586 172.883 106.515 172.924C106.35 173.022 106.225 173.175 106.163 173.356C105.887 174.05 105.372 174.623 104.711 174.972C104.311 175.227 103.837 175.34 103.365 175.29C102.893 175.24 102.452 175.031 102.115 174.697C101.865 174.454 101.657 174.171 101.5 173.859C101.491 173.848 101.484 173.834 101.481 173.82C101.478 173.805 101.479 173.79 101.483 173.776C101.487 173.761 101.495 173.748 101.505 173.738C101.516 173.727 101.529 173.719 101.543 173.715L105.938 171.343C106.009 171.312 106.073 171.266 106.125 171.208C106.177 171.151 106.216 171.083 106.239 171.01C106.263 170.936 106.271 170.858 106.262 170.781C106.253 170.704 106.228 170.63 106.188 170.564C105.875 169.94 105.46 169.374 104.959 168.887C104.41 168.422 103.732 168.133 103.015 168.06C102.298 167.986 101.576 168.131 100.942 168.475C100.309 168.818 99.7945 169.346 99.4663 169.987C99.138 170.628 99.0115 171.353 99.1032 172.067C99.2511 172.779 99.517 173.461 99.89 174.086C100.212 174.738 100.642 175.331 101.161 175.84C101.697 176.367 102.398 176.694 103.146 176.766C103.895 176.838 104.645 176.652 105.273 176.237L105.275 176.237ZM100.981 172.663C100.969 172.673 100.956 172.68 100.941 172.683C100.927 172.686 100.911 172.685 100.897 172.681C100.883 172.677 100.87 172.669 100.859 172.659C100.849 172.648 100.841 172.635 100.836 172.621C100.673 172.341 100.557 172.036 100.492 171.718C100.441 171.299 100.517 170.875 100.711 170.5C100.905 170.126 101.208 169.818 101.579 169.618C101.951 169.417 102.374 169.333 102.794 169.377C103.213 169.42 103.61 169.589 103.933 169.861C104.162 170.09 104.353 170.355 104.497 170.645C104.506 170.657 104.512 170.67 104.514 170.685C104.517 170.699 104.516 170.714 104.512 170.728C104.508 170.742 104.501 170.755 104.491 170.766C104.481 170.776 104.468 170.785 104.455 170.79L100.981 172.663Z" fill="#1899D6"/>
<path fill-rule="evenodd" clip-rule="evenodd" d="M53.7898 116.793C54.0559 116.65 54.3478 116.56 54.6486 116.529C54.9494 116.498 55.2533 116.527 55.543 116.614C55.8326 116.7 56.1023 116.843 56.3366 117.034C56.5709 117.225 56.7653 117.46 56.9086 117.726C56.9373 117.78 56.964 117.835 56.9887 117.89L62.5054 130.355C62.6306 130.637 62.6446 130.955 62.5447 131.247C62.4448 131.539 62.2384 131.782 61.9667 131.928C61.695 132.074 61.3782 132.113 61.0796 132.035C60.781 131.958 60.5226 131.771 60.3563 131.512L52.9517 120.065C52.6197 119.553 52.505 118.93 52.6327 118.334C52.7605 117.737 53.1202 117.215 53.6328 116.883C53.6844 116.851 53.7367 116.821 53.7898 116.793Z" fill="#743D00"/>
<path fill-rule="evenodd" clip-rule="evenodd" d="M41.0265 138.006L41.0629 137.962C42.3171 135.844 43.977 133.994 45.9474 132.518C47.9179 131.041 50.1602 129.967 52.5462 129.357C54.9322 128.747 57.4148 128.613 59.8522 128.962C62.2895 129.312 64.6336 130.138 66.7503 131.394L76.1484 136.939C80.4312 139.474 83.5314 143.604 84.7691 148.422C86.0068 153.24 85.2809 158.353 82.7507 162.639L82.7463 162.647L82.7019 162.685C81.4477 164.803 79.7878 166.653 77.8174 168.13C75.847 169.606 73.6047 170.681 71.2188 171.291C68.8329 171.901 66.3503 172.035 63.913 171.686C61.4757 171.336 59.1316 170.51 57.0148 169.255L47.6158 163.71C43.3328 161.174 40.2325 157.045 38.9948 152.227C37.7571 147.409 38.4831 142.296 41.0135 138.01L41.0179 138.002L41.0265 138.006Z" fill="#FF4B4B"/>
<path fill-rule="evenodd" clip-rule="evenodd" d="M78.5491 117.759L78.4929 117.766C76.0331 117.652 73.5746 118.024 71.2584 118.861C68.9421 119.698 66.8135 120.982 64.9943 122.642C63.1752 124.301 61.7013 126.302 60.6569 128.531C59.6125 130.759 59.0182 133.171 58.908 135.629L58.3887 146.524C58.1611 151.494 59.916 156.35 63.2683 160.027C66.6206 163.704 71.2967 165.901 76.2708 166.138L76.2795 166.135L76.3358 166.12C78.7955 166.233 81.2538 165.861 83.5699 165.024C85.886 164.187 88.0144 162.903 89.8334 161.243C91.6523 159.584 93.1261 157.583 94.1704 155.355C95.2146 153.126 95.8088 150.714 95.919 148.257L96.4383 137.361C96.6651 132.392 94.9102 127.537 91.5585 123.861C88.2069 120.185 83.5319 117.987 78.5586 117.75L78.55 117.753L78.5491 117.759Z" fill="#FF4B4B"/>
<path d="M57.136 152.026C58.3205 151.389 59.2895 150.415 59.9204 149.229C60.5512 148.042 60.8156 146.695 60.68 145.358C60.5444 144.021 60.0149 142.755 59.1585 141.72C58.3022 140.684 57.1575 139.926 55.8692 139.541C54.5809 139.156 53.2071 139.161 51.9214 139.556C50.6357 139.951 49.4961 140.719 48.6466 141.761C47.7971 142.803 47.2761 144.073 47.1493 145.411C47.0226 146.749 47.2958 148.093 47.9346 149.275C48.3576 150.06 48.9311 150.753 49.6225 151.316C50.3138 151.878 51.1094 152.299 51.9638 152.555C52.8183 152.81 53.7148 152.895 54.6022 152.804C55.4897 152.714 56.3506 152.449 57.136 152.026Z" fill="#FF7878"/>
<path fill-rule="evenodd" clip-rule="evenodd" d="M69.1087 99.9047C67.9894 99.5277 61.3544 103.958 59.6454 109.255C57.9365 114.552 60.4742 122.272 61.4594 122.603C62.4446 122.934 69.1699 118.443 70.9808 113.079C72.7917 107.715 70.2305 100.281 69.1087 99.9047Z" fill="#5ABB1A"/>
<path d="M88.0714 144.074C88.7427 143.714 89.2919 143.162 89.6495 142.489C90.0071 141.817 90.157 141.053 90.0802 140.296C90.0034 139.538 89.7035 138.821 89.2182 138.234C88.733 137.647 88.0843 137.217 87.3543 136.999C86.6242 136.781 85.8457 136.784 85.1171 137.008C84.3885 137.232 83.7427 137.667 83.2613 138.257C82.7799 138.848 82.4846 139.568 82.4128 140.326C82.341 141.084 82.4959 141.846 82.8578 142.516C83.342 143.413 84.1632 144.081 85.1409 144.374C86.1186 144.666 87.1727 144.558 88.0714 144.074Z" fill="#EA2B2B"/>
<path d="M86.1077 152.335C86.5815 152.08 86.9691 151.691 87.2214 151.216C87.4737 150.741 87.5794 150.202 87.5251 149.668C87.4707 149.133 87.2588 148.627 86.9162 148.212C86.5735 147.798 86.1156 147.495 85.6002 147.341C85.0848 147.187 84.5352 147.189 84.021 147.348C83.5067 147.506 83.0509 147.813 82.7112 148.23C82.3716 148.647 82.1633 149.155 82.1128 149.69C82.0622 150.225 82.1718 150.763 82.4274 151.236C82.5967 151.55 82.8261 151.827 83.1027 152.052C83.3792 152.277 83.6975 152.445 84.0392 152.547C84.381 152.649 84.7395 152.683 85.0945 152.647C85.4494 152.61 85.7937 152.505 86.1077 152.335Z" fill="#EA2B2B"/>
<path d="M76.758 82.2358L10.4507 118.019C5.64326 120.614 3.849 126.609 6.44306 131.41L52.6471 216.922C55.2412 221.723 61.2412 223.512 66.0486 220.917L132.356 185.134C137.163 182.539 138.958 176.544 136.364 171.743L90.1595 86.2312C87.5655 81.4302 81.5654 79.6414 76.758 82.2358Z" stroke="#84D8FF" stroke-width="3"/>
</g>
</svg>
