<svg xmlns="http://www.w3.org/2000/svg" x="0px" y="7460px" width="36.563px" height="33.639px" viewBox="0 0 36.563 33.639" enable-background="new 0 0 36.563 33.639" xml:space="preserve">
	<path fill="#CFCFCF" d="M34.421,21.25c0,1.591-1.294,2.885-2.885,2.885H14.917l-7.766,5.403v-5.403H5.026   c-1.591,0-2.885-1.294-2.885-2.885V5.026c0-1.59,1.294-2.884,2.885-2.884h26.51c1.591,0,2.885,1.294,2.885,2.884V21.25z M31.536,0   H5.026C2.255,0,0,2.255,0,5.026V21.25c0,2.767,2.245,5.017,5.009,5.026v7.362l10.58-7.362h15.947c2.771,0,5.027-2.254,5.027-5.026   V5.026C36.563,2.255,34.308,0,31.536,0L31.536,0z"/>
	<rect x="9.786" y="7.57" fill="#CFCFCF" width="16.991" height="2.143"/>
	<rect x="9.786" y="12.141" fill="#CFCFCF" width="16.991" height="2.143"/>
	<rect x="9.786" y="16.711" fill="#CFCFCF" width="16.991" height="2.143"/>
	</svg>