<svg xmlns="http://www.w3.org/2000/svg" width="23.256" height="21.797" viewBox="0 0 23.256 21.797"><path d="M11.628,18.919l-5.2,2.672a1.855,1.855,0,0,1-2.477-.753A1.757,1.757,0,0,1,3.767,19.7l.993-5.66L.554,10.033A1.764,1.764,0,0,1,.521,7.5a1.849,1.849,0,0,1,1.05-.523l5.813-.826L9.983,1A1.853,1.853,0,0,1,12.44.186,1.814,1.814,0,0,1,13.272,1l2.6,5.15,5.813.826a1.8,1.8,0,0,1,1.551,2.032,1.779,1.779,0,0,1-.535,1.026L18.5,14.041l.993,5.66a1.8,1.8,0,0,1-1.5,2.07,1.87,1.87,0,0,1-1.163-.18Z" transform="translate(0)" fill="#fc4848" fill-rule="evenodd"/><path d="M6.414,18.921l4.5-5.835a.7.7,0,0,1,.963-.132.681.681,0,0,1,.135.132l4.684,6.072a.442.442,0,0,1-.09.628.467.467,0,0,1-.5.035l-4.647-2.5-4.47,2.265a.464.464,0,0,1-.618-.192A.44.44,0,0,1,6.414,18.921Z" transform="translate(-0.058 -0.118)" fill="#ea2b2b" fill-rule="evenodd"/><path d="M11.244,2.706V10.15a.68.68,0,0,1-.688.672.7.7,0,0,1-.189-.026L2.986,8.73a.447.447,0,0,1-.315-.554.456.456,0,0,1,.384-.321l4.789-.585L10.378,2.5A.464.464,0,0,1,11,2.308.447.447,0,0,1,11.244,2.706Z" transform="translate(-0.024 -0.021)" fill="#fff" fill-rule="evenodd" opacity="0.468"/></svg>