<svg xmlns="http://www.w3.org/2000/svg" width="30.811" height="30.981" viewBox="0 0 30.811 30.981"><g transform="translate(-813.835 -580.534)"><path d="M15.558,23.781,8.312,21.144A3.3,3.3,0,0,1,6.155,17.72H3.3A3.3,3.3,0,0,1,0,14.42V3.3A3.3,3.3,0,0,1,3.3,0h7.713a3.3,3.3,0,0,1,3.3,3.3V4.471l.059.021L21.62,7.13a3.3,3.3,0,0,1,1.972,4.229l-3.8,10.45a3.3,3.3,0,0,1-4.23,1.972Z" transform="translate(817.334 584.034)" fill="#65a20e" stroke="#fff" stroke-width="7"/><g transform="translate(817.333 584.033)"><rect width="14.312" height="17.72" rx="2" transform="matrix(0.94, 0.342, -0.342, 0.94, 11.271, 3.363)" fill="#a5ed6e"/><rect width="14.312" height="17.72" rx="2" fill="#58cc02"/></g></g></svg>