<svg xmlns="http://www.w3.org/2000/svg" width="30.794" height="30.981" viewBox="0 0 30.794 30.981"><g transform="translate(-813.835 -580.534)"><path d="M15.558,23.781,8.312,21.144A3.3,3.3,0,0,1,6.155,17.72H3.3A3.3,3.3,0,0,1,0,14.42V3.3A3.3,3.3,0,0,1,3.3,0h7.713a3.3,3.3,0,0,1,3.3,3.3V4.471l.059.021L21.62,7.13a3.3,3.3,0,0,1,1.972,4.229l-3.8,10.45a3.3,3.3,0,0,1-4.23,1.972Z" transform="translate(817.334 584.034)" fill="#65a20e"/><path d="M16.687,27.481h0a6.779,6.779,0,0,1-2.327-.411L7.115,24.433A6.8,6.8,0,0,1,3.426,21.22H3.3a6.808,6.808,0,0,1-6.8-6.8V3.3A6.807,6.807,0,0,1,3.3-3.5h7.713a6.811,6.811,0,0,1,6.67,5.473l5.134,1.868a6.8,6.8,0,0,1,4.064,8.716l-3.8,10.449A6.822,6.822,0,0,1,16.687,27.481ZM6.155,14.22h3.862l-.379,3.844,6.929,2.364L20.3,10.162,13.175,7.781l-2.3-.838L10.813,3.3,3.3,3.5l.2,10.92Z" transform="translate(817.334 584.034)" fill="#fff"/><g transform="translate(817.333 584.033)"><rect width="14.312" height="17.72" rx="2" transform="matrix(0.94, 0.342, -0.342, 0.94, 11.271, 3.363)" fill="#ffb2b2"/><rect width="14.312" height="17.72" rx="2" fill="#fc4848"/></g></g></svg>