<svg xmlns="http://www.w3.org/2000/svg" xmlns:xlink="http://www.w3.org/1999/xlink" version="1.1" id="Layer_1" x="0px" y="0px" width="108px" height="108px" viewBox="0 0 108 108" enable-background="new 0 0 108 108" xml:space="preserve" class="mdl-js">
<path fill="#DDDDDD" d="M0,100V8c0-0.525,0.051-1.045,0.154-1.561c0.103-0.516,0.254-1.016,0.455-1.501s0.448-0.946,0.739-1.383  C1.64,3.119,1.972,2.714,2.343,2.343C2.714,1.972,3.119,1.64,3.556,1.348C3.992,1.057,4.453,0.81,4.938,0.609  s0.986-0.353,1.501-0.455S7.475,0,8,0h92c0.525,0,1.046,0.051,1.561,0.154c0.516,0.103,1.016,0.254,1.501,0.455  s0.946,0.448,1.383,0.739c0.437,0.292,0.841,0.624,1.213,0.995c0.371,0.371,0.703,0.775,0.994,1.212  c0.292,0.437,0.539,0.897,0.739,1.383c0.201,0.485,0.354,0.985,0.456,1.501C107.949,6.955,108,7.475,108,8v92  c0,0.525-0.051,1.046-0.153,1.561c-0.103,0.516-0.255,1.016-0.456,1.501c-0.2,0.485-0.447,0.946-0.739,1.383  c-0.291,0.437-0.623,0.841-0.994,1.213c-0.372,0.371-0.776,0.703-1.213,0.994c-0.437,0.292-0.897,0.539-1.383,0.739  c-0.485,0.201-0.985,0.354-1.501,0.456C101.046,107.949,100.525,108,100,108H8c-0.525,0-1.045-0.051-1.561-0.153  s-1.016-0.255-1.501-0.456c-0.485-0.2-0.946-0.447-1.383-0.739c-0.437-0.291-0.841-0.623-1.212-0.994  c-0.372-0.372-0.703-0.776-0.995-1.213c-0.292-0.437-0.538-0.897-0.739-1.383s-0.353-0.985-0.455-1.501  C0.051,101.046,0,100.525,0,100z"/>
<path fill="#AFAFAF" d="M83.023,42.89l-0.472,0.471L64.638,25.448l0.472-0.471c1.3-1.3,3.414-1.3,4.714,0l13.199,13.199  C84.322,39.476,84.322,41.59,83.023,42.89L83.023,42.89z M68.409,48.075l-8.485-8.485l6.6-6.6l8.485,8.485L68.409,48.075z   M63.653,67.916l-0.901,0.901l-23.57-23.57l0.901-0.901c4.149-4.149,10.482-5.364,15.863-3.076l10.783,10.784  C69.018,57.434,67.803,63.768,63.653,67.916z M34.086,77.685c-2.723,2.722-6.009,4.716-9.633,5.861  c1.146-3.623,3.139-6.91,5.861-9.632l15.938-15.939l3.771,3.771L34.086,77.685z M85.852,35.347L72.652,22.148  C71.267,20.763,69.425,20,67.467,20c-1.959,0-3.801,0.763-5.186,2.148l-1.886,1.886c-0.781,0.781-0.781,2.047,0,2.828l3.3,3.3  l-7.074,7.074c-3.073-1.126-6.371-1.412-9.618-0.823c-3.71,0.673-7.082,2.438-9.748,5.104l-2.315,2.316  c-0.781,0.781-0.781,2.047,0,2.828l8.485,8.485L27.486,71.085c-4.057,4.056-6.727,9.187-7.724,14.835  c-0.113,0.643,0.094,1.301,0.555,1.762c0.378,0.379,0.889,0.586,1.415,0.586c0.115,0,0.232-0.01,0.348-0.031  c5.648-0.996,10.779-3.667,14.835-7.724l15.938-15.938l8.485,8.486c0.391,0.391,0.902,0.586,1.414,0.586s1.024-0.195,1.414-0.586  l2.316-2.316c2.666-2.666,4.432-6.037,5.104-9.748c0.589-3.247,0.303-6.544-0.823-9.618l7.073-7.074l3.3,3.3  c0.391,0.391,0.903,0.586,1.415,0.586s1.023-0.195,1.414-0.586l1.886-1.885c1.385-1.385,2.147-3.227,2.147-5.186  C87.999,38.574,87.236,36.732,85.852,35.347L85.852,35.347z"/>
</svg>