<svg width="325" height="352" viewBox="0 0 325 352" fill="none" xmlns="http://www.w3.org/2000/svg">
<path opacity="0.14" d="M274.17 214.436L294.625 209.292C296.358 208.859 298.136 209.914 298.58 211.659L306.958 244.913C307.391 246.646 306.336 248.423 304.591 248.868L284.137 254.012C282.403 254.445 280.626 253.39 280.181 251.646L271.804 218.392C271.382 216.647 272.437 214.87 274.17 214.436Z" fill="#58CC02"/>
<path opacity="0.39" d="M28.8136 203.081L45.0795 211.514C46.4572 212.225 47.0016 213.947 46.2906 215.325L32.569 241.779C31.8579 243.157 30.1358 243.701 28.7581 242.99L12.4922 234.557C11.1145 233.846 10.5701 232.124 11.2811 230.746L25.0027 204.292C25.7249 202.914 27.4359 202.37 28.8136 203.081Z" fill="#1CB0F6"/>
<path opacity="0.39" d="M213.665 0.806706L229.853 11.3506C231.23 12.2506 231.619 14.1061 230.719 15.4727L213.576 41.7936C212.676 43.1713 210.82 43.5602 209.454 42.6602L193.266 32.1163C191.888 31.2163 191.499 29.3609 192.399 27.9943L209.543 1.67333C210.431 0.29562 212.287 -0.0932507 213.665 0.806706Z" fill="#C365FB"/>
<path d="M88.8567 28.6669C91.6344 28.6669 94.4342 29.4336 96.9119 31.0557L164.831 75.2869C171.664 79.7422 173.619 88.9751 169.164 95.8081L99.2784 203.114C96.4452 207.469 91.6677 209.836 86.8124 209.836C84.0347 209.836 81.2349 209.069 78.7572 207.447L10.8383 163.216C4.00527 158.761 2.04981 149.528 6.50515 142.695L76.3906 35.3888C79.235 31.0335 84.0014 28.6669 88.8567 28.6669ZM88.8567 24.5449C82.3904 24.5449 76.4462 27.7559 72.9353 33.1334L3.06088 140.439C0.305454 144.672 -0.627834 149.728 0.416559 154.694C1.46095 159.661 4.37192 163.905 8.59394 166.66L76.5129 210.891C79.5794 212.891 83.1459 213.947 86.8124 213.947C93.2787 213.947 99.2229 210.736 102.734 205.358L172.619 98.0525C178.319 89.2973 175.841 77.5312 167.086 71.8315L99.1673 27.6003C96.0897 25.6004 92.5343 24.5449 88.8567 24.5449Z" fill="#DDF4FF"/>
<path d="M115.422 134.751C103.245 116.118 108.478 91.1527 127.11 78.9755C133.51 74.798 140.654 72.6647 147.765 72.4314L104.534 44.2661C102.945 49.677 99.5118 54.5767 94.4232 57.8988C86.5458 63.043 76.824 63.0763 69.1244 58.8432L46.0255 94.3081C49.6698 96.4858 52.8919 99.4968 55.3695 103.285C64.0802 116.618 60.336 134.484 47.0033 143.195C36.8038 149.861 23.9488 149.228 14.5715 142.595L14.0827 143.35C10.6384 148.639 12.1494 155.783 17.438 159.227L79.735 199.803C85.0236 203.247 92.1677 201.736 95.612 196.448L127.877 146.917C123.033 143.917 118.744 139.839 115.422 134.751Z" fill="#1CB0F6"/>
<path d="M47.0021 143.195C60.3348 134.484 64.079 116.618 55.3683 103.285C52.8907 99.4967 49.6686 96.4747 46.0243 94.3081L14.5703 142.595C23.9476 149.228 36.8026 149.861 47.0021 143.195Z" fill="#4ECDFF"/>
<path d="M94.4121 57.9099C99.5007 54.5878 102.934 49.6881 104.523 44.2772L95.9453 38.6886C90.6567 35.2443 83.5126 36.7554 80.0683 42.044L69.1133 58.8543C76.8129 63.0874 86.5458 63.0541 94.4121 57.9099Z" fill="#4ECDFF"/>
<path d="M115.422 134.75C118.744 139.839 123.033 143.917 127.866 146.928L161.598 95.1413C165.042 89.8526 163.531 82.7085 158.242 79.2643L147.765 72.4424C140.643 72.6757 133.499 74.8089 127.111 78.9865C108.489 91.1526 103.256 116.118 115.422 134.75Z" fill="#4ECDFF"/>
<path d="M116.044 210.514C116.411 210.514 116.777 210.525 117.144 210.558L229.25 220.024C236.394 220.624 241.738 226.968 241.138 234.101L235.149 305.065C234.583 311.842 228.85 316.997 222.161 316.997C221.794 316.997 221.428 316.986 221.061 316.953L108.955 307.487C101.811 306.887 96.4671 300.543 97.0671 293.41L103.056 222.446C103.633 215.669 109.367 210.514 116.044 210.514ZM116.055 206.892C107.478 206.892 100.189 213.591 99.467 222.135L93.4784 293.099C92.7007 302.243 99.5225 310.32 108.667 311.087L220.772 320.553C221.239 320.597 221.706 320.608 222.172 320.608C230.75 320.608 238.038 313.909 238.76 305.365L244.749 234.401C245.527 225.257 238.705 217.18 229.561 216.413L117.455 206.947C116.988 206.914 116.511 206.892 116.055 206.892Z" fill="#D7FFB8"/>
<path d="M168.588 291.554C177.943 274.388 199.442 268.055 216.619 277.41C222.518 280.621 227.129 285.266 230.273 290.676L234.084 245.501C229.24 246.523 224.018 245.901 219.318 243.345C212.063 239.39 207.986 231.879 208.075 224.157L171.021 221.024C170.854 224.746 169.865 228.491 167.954 231.99C161.255 244.279 145.878 248.812 133.589 242.112C124.19 236.99 119.334 226.78 120.568 216.758L119.779 216.691C114.257 216.224 109.346 220.369 108.879 225.891L103.38 290.976C102.913 296.498 107.057 301.409 112.579 301.876L164.332 306.242C164.654 301.254 166.032 296.243 168.588 291.554Z" fill="#58CC02"/>
<path d="M133.591 242.112C145.879 248.811 161.267 244.278 167.956 231.99C169.856 228.49 170.855 224.746 171.022 221.024L120.569 216.769C119.347 226.779 124.191 236.99 133.591 242.112Z" fill="#A5ED6E"/>
<path d="M219.319 243.334C224.008 245.89 229.23 246.512 234.085 245.49L234.841 236.524C235.307 231.002 231.163 226.091 225.641 225.624L208.075 224.135C207.998 231.868 212.064 239.379 219.319 243.334Z" fill="#A5ED6E"/>
<path d="M216.619 277.411C199.453 268.056 177.943 274.389 168.588 291.554C166.033 296.243 164.655 301.254 164.344 306.254L218.452 310.82C223.974 311.287 228.885 307.143 229.352 301.621L230.274 290.677C227.13 285.266 222.508 280.622 216.619 277.411Z" fill="#A5ED6E"/>
<path d="M281.581 58.5546C287.203 58.5546 292.369 62.3767 293.803 68.0653L320.335 173.405C322.023 180.115 317.912 186.993 311.202 188.682L244.527 205.47C243.505 205.725 242.483 205.847 241.472 205.847C235.85 205.847 230.683 202.025 229.25 196.337L202.729 90.9975C201.04 84.2867 205.151 77.4093 211.862 75.7205L278.537 58.9324C279.548 58.6769 280.57 58.5546 281.581 58.5546ZM281.581 55.0659C280.27 55.0659 278.948 55.2326 277.67 55.5548L210.995 72.3429C202.396 74.5094 197.174 83.2645 199.329 91.853L225.861 197.192C227.661 204.348 234.083 209.336 241.472 209.336C242.783 209.336 244.105 209.17 245.383 208.847L312.057 192.059C316.213 191.015 319.712 188.404 321.912 184.715C324.123 181.026 324.757 176.704 323.712 172.549L297.18 67.2098C295.391 60.0546 288.969 55.0659 281.581 55.0659Z" fill="#EFD2FE"/>
<path d="M314.07 171.86L293.348 89.5753C286.649 102.286 272.338 109.863 257.395 107.33C242.006 104.719 230.796 92.2085 229.14 77.4314L216.041 80.7312C210.852 82.0423 207.675 87.3531 208.975 92.5529L216.141 120.996C219.73 119.429 223.785 118.852 227.929 119.552C239.273 121.474 246.906 132.229 244.984 143.584C243.362 153.172 235.429 160.083 226.163 160.838L234.018 192.026C235.329 197.214 240.64 200.392 245.84 199.092L253.017 197.281C251.195 193.081 250.517 188.326 251.339 183.471C253.595 170.149 266.227 161.183 279.549 163.449C290.782 165.36 298.926 174.638 299.837 185.493L307.003 183.693C312.203 182.36 315.381 177.049 314.07 171.86Z" fill="#C365FB"/>
<path d="M279.561 163.427C266.24 161.172 253.618 170.138 251.352 183.448C250.529 188.304 251.196 193.059 253.029 197.259L299.849 185.471C298.927 174.627 290.794 165.338 279.561 163.427Z" fill="#CF80FD"/>
<path d="M244.995 143.572C246.918 132.228 239.285 121.473 227.941 119.54C223.796 118.84 219.73 119.418 216.152 120.984L226.185 160.827C235.44 160.06 243.373 153.149 244.995 143.572Z" fill="#CF80FD"/>
<path d="M257.395 107.319C272.339 109.852 286.649 102.274 293.349 89.5639L289.027 72.387C287.716 67.1983 282.405 64.0207 277.205 65.3206L229.141 77.42C230.796 92.1971 242.018 104.708 257.395 107.319Z" fill="#CF80FD"/>
<path opacity="0.14" d="M158.054 0.0399585L181.964 3.47312C183.997 3.762 185.419 5.66191 185.119 7.69514L179.53 46.571C179.242 48.6043 177.342 50.0264 175.308 49.7264L151.398 46.2933C149.365 46.0044 147.943 44.1045 148.243 42.0713L153.832 3.19536C154.132 1.16213 156.02 -0.260027 158.054 0.0399585Z" fill="#C365FB"/>
<path opacity="0.14" d="M50.1912 231.691L73.6123 225.791C75.6011 225.291 77.6343 226.502 78.1343 228.491L87.7227 266.578C88.2227 268.567 87.0116 270.6 85.0228 271.1L61.6018 277C59.613 277.499 57.5797 276.288 57.0798 274.3L47.4913 236.213C46.9802 234.224 48.2024 232.191 50.1912 231.691Z" fill="#1CB0F6"/>
<path opacity="0.39" d="M258.573 251.478L271.872 255.9C273.005 256.278 273.616 257.511 273.238 258.634L266.039 280.266C265.661 281.399 264.428 282.01 263.306 281.632L250.017 277.21C248.884 276.833 248.273 275.599 248.651 274.477L255.85 252.845C256.217 251.723 257.45 251.101 258.573 251.478Z" fill="#58CC02"/>
<path d="M78.6315 145.704C79.6086 145.82 80.3625 146.035 80.8933 146.348C81.4242 146.662 81.7729 147.12 81.9395 147.721C82.1061 148.322 82.1357 149.131 82.0284 150.149C81.8187 151.696 81.394 152.716 80.7545 153.208C80.1394 153.716 79.0461 153.857 77.4744 153.632L60.5706 151.471L69.3416 166.083C70.1069 167.429 70.3781 168.485 70.1552 169.251C69.9569 170.033 69.1972 170.815 67.8761 171.596C67.0089 172.114 66.2583 172.428 65.6245 172.538C65.0067 172.624 64.4485 172.485 63.9499 172.122C63.4513 171.759 62.9551 171.152 62.4615 170.301L49.4096 148.504C49.0147 147.823 48.831 147.088 48.8584 146.299C48.8775 145.469 49.0884 144.747 49.4913 144.134C49.7813 143.693 50.133 143.345 50.5463 143.09C50.9512 142.795 51.4054 142.584 51.909 142.459C52.4126 142.334 52.9372 142.31 53.4828 142.388L78.6315 145.704ZM66.0537 163.395L62.155 156.83L66.1432 150.764L73.7157 151.74L66.0537 163.395ZM90.6169 136.684C89.8273 137.885 88.8974 138.765 87.8271 139.326C86.7568 139.886 85.6196 140.174 84.4156 140.19C83.1871 140.189 81.945 139.97 80.6892 139.53C79.4335 139.091 78.2132 138.464 77.0282 137.65C75.8678 136.852 74.8247 135.956 73.899 134.961C72.9893 133.942 72.2909 132.868 71.8036 131.741C71.3163 130.613 71.1096 129.459 71.1833 128.279C71.2326 127.082 71.6439 125.896 72.4174 124.719C73.1264 123.641 74.0686 122.768 75.244 122.102C76.4355 121.411 77.7383 120.951 79.1524 120.722C80.5421 120.477 81.9415 120.484 83.3506 120.744C84.7598 121.003 86.0526 121.52 87.2292 122.293C88.4547 123.099 89.4659 124.097 90.2628 125.288C91.0351 126.463 91.5721 127.728 91.8737 129.085C92.167 130.401 92.208 131.727 91.997 133.063C91.802 134.374 91.342 135.581 90.6169 136.684ZM94.3811 148.9C93.6721 149.978 93.0052 150.646 92.3804 150.902C91.7556 151.158 91.1659 151.174 90.6112 150.95C90.0726 150.701 89.5337 150.4 88.9945 150.045L69.0301 136.921C68.4909 136.566 68.0003 136.191 67.5585 135.795C67.1327 135.375 66.9055 134.839 66.8769 134.189C66.8399 133.497 67.1759 132.612 67.8849 131.534C68.4489 130.676 69.0387 130.046 69.6545 129.643C70.2457 129.224 70.867 129.054 71.5183 129.131L93.2842 143.44C93.8557 143.745 94.3462 144.12 94.7559 144.565C95.2062 145.002 95.4376 145.557 95.45 146.233C95.4625 146.908 95.1062 147.797 94.3811 148.9ZM83.7865 133.457C84.1087 132.967 84.2762 132.445 84.2889 131.892C84.3177 131.314 84.2166 130.774 83.9856 130.271C83.73 129.752 83.3694 129.339 82.9037 129.033C82.4135 128.711 81.8917 128.543 81.3384 128.531C80.7767 128.477 80.2486 128.586 79.754 128.858C79.2511 129.089 78.8385 129.45 78.5162 129.94C78.194 130.43 78.0184 130.964 77.9896 131.542C77.9769 132.095 78.086 132.623 78.3171 133.126C78.5642 133.605 78.9329 134.005 79.4232 134.327C79.8889 134.634 80.4106 134.801 80.9885 134.83C81.5418 134.843 82.0699 134.733 82.5728 134.502C83.0758 134.271 83.4803 133.923 83.7865 133.457ZM103.693 116.792C102.904 117.994 101.974 118.874 100.904 119.434C99.8333 119.994 98.6962 120.282 97.4922 120.298C96.2637 120.298 95.0216 120.078 93.7658 119.639C92.5101 119.199 91.2898 118.573 90.1048 117.759C88.9444 116.961 87.9013 116.064 86.9756 115.07C86.0659 114.05 85.3675 112.977 84.8802 111.849C84.3929 110.721 84.1862 109.567 84.2599 108.387C84.3092 107.191 84.7205 106.005 85.494 104.828C86.203 103.75 87.1451 102.877 88.3205 102.211C89.512 101.519 90.8149 101.06 92.229 100.831C93.6187 100.586 95.0181 100.593 96.4272 100.852C97.8364 101.112 99.1292 101.628 100.306 102.402C101.531 103.207 102.543 104.206 103.339 105.397C104.112 106.571 104.649 107.837 104.95 109.194C105.244 110.51 105.285 111.836 105.074 113.171C104.879 114.482 104.419 115.689 103.693 116.792ZM107.458 129.008C106.749 130.087 106.082 130.754 105.457 131.011C104.832 131.267 104.242 131.283 103.688 131.059C103.149 130.81 102.61 130.508 102.071 130.154L82.1067 117.029C81.5675 116.675 81.0769 116.3 80.635 115.904C80.2093 115.483 79.9821 114.948 79.9535 114.297C79.9165 113.606 80.2525 112.721 80.9615 111.643C81.5255 110.785 82.1153 110.154 82.731 109.752C83.3223 109.333 83.9435 109.162 84.5949 109.239L106.361 123.548C106.932 123.854 107.423 124.229 107.832 124.674C108.283 125.11 108.514 125.666 108.527 126.341C108.539 127.016 108.183 127.905 107.458 129.008ZM96.863 113.566C97.1853 113.076 97.3528 112.554 97.3655 112.001C97.3943 111.423 97.2932 110.882 97.0622 110.379C96.8066 109.86 96.446 109.448 95.9803 109.142C95.4901 108.819 94.9683 108.652 94.415 108.639C93.8533 108.586 93.3251 108.695 92.8306 108.967C92.3277 109.198 91.9151 109.558 91.5928 110.049C91.2705 110.539 91.095 111.073 91.0662 111.651C91.0535 112.204 91.1626 112.732 91.3937 113.235C91.6408 113.713 92.0095 114.114 92.4997 114.436C92.9654 114.742 93.4872 114.91 94.065 114.939C94.6184 114.951 95.1465 114.842 95.6494 114.611C96.1523 114.38 96.5569 114.032 96.863 113.566ZM115.809 99.3236C115.068 100.451 114.367 101.412 113.704 102.205C113.059 102.974 112.395 103.556 111.714 103.951C111.033 104.346 110.303 104.55 109.522 104.563C108.716 104.56 107.816 104.354 106.821 103.946C105.801 103.521 104.617 102.866 103.269 101.979L86.9813 91.2719C86.4175 90.9013 85.9227 90.5058 85.497 90.0855C85.0467 89.6491 84.8153 89.0933 84.8028 88.4181C84.7658 87.7268 85.1099 86.8296 85.835 85.7266C86.5601 84.6236 87.2393 83.9643 87.8725 83.7487C88.4973 83.4925 89.0993 83.4845 89.6785 83.7249C90.2577 83.9652 90.8291 84.2707 91.3929 84.6413L107.239 95.0587C107.607 95.3005 107.901 95.4938 108.122 95.6388C108.334 95.7432 108.505 95.8032 108.635 95.8186C108.782 95.8095 108.908 95.7517 109.013 95.6453C109.109 95.4982 109.238 95.3021 109.399 95.057C109.609 94.7384 109.875 94.4397 110.199 94.161C110.514 93.8417 110.973 93.7045 111.575 93.7494C112.169 93.7537 112.993 94.1023 114.047 94.7952C115.15 95.5203 115.846 96.1708 116.134 96.7466C116.439 97.2978 116.507 97.7815 116.339 98.1975C116.195 98.6296 116.019 99.005 115.809 99.3236ZM124.832 86.4805C123.623 88.3188 122.306 89.6819 120.88 90.5697C119.429 91.4415 117.968 91.9553 116.496 92.1112C115 92.251 113.568 92.1342 112.198 91.7606C110.829 91.387 109.618 90.8538 108.564 90.1609C106.627 88.888 105.206 87.3391 104.299 85.5144C103.392 83.6897 103.022 81.7436 103.187 79.676C103.353 77.6085 104.08 75.5942 105.37 73.6334C106.369 72.1137 107.468 70.9757 108.667 70.2195C109.866 69.4633 111.063 69.004 112.258 68.8418C113.469 68.655 114.608 68.6842 115.676 68.9296C116.743 69.1749 117.644 69.5393 118.38 70.0227C119.777 70.9412 120.618 71.9852 120.902 73.155C121.186 74.3247 120.973 75.4488 120.264 76.5273L115.116 84.3586C115.573 84.5184 116.045 84.5479 116.532 84.4471C117.011 84.3057 117.49 84.0585 117.968 83.7056C118.421 83.3366 118.825 82.8825 119.179 82.3432C119.534 81.804 119.823 81.3099 120.048 80.861C120.249 80.3959 120.397 79.9841 120.492 79.6255C120.603 79.2425 120.691 78.8961 120.754 78.5866C120.833 78.2525 120.912 77.9713 120.992 77.743C121.064 77.474 121.164 77.2415 121.293 77.0454C121.583 76.6042 121.996 76.2965 122.532 76.1222C123.068 75.9479 123.726 75.907 124.508 75.9996C124.939 76.0375 125.326 76.1164 125.669 76.2362C125.987 76.3399 126.268 76.4723 126.513 76.6335C127.249 77.1169 127.66 77.8261 127.747 78.7612C127.851 79.6717 127.655 80.7713 127.159 82.0599C126.687 83.3647 125.911 84.8382 124.832 86.4805ZM111.66 82.0866L114.367 77.9687C114.593 77.6255 114.68 77.3321 114.63 77.0883C114.596 76.8201 114.431 76.5893 114.137 76.3959C113.819 76.1864 113.485 76.1072 113.135 76.1583C112.802 76.1848 112.481 76.3252 112.174 76.5794C111.842 76.8175 111.531 77.1571 111.241 77.5983C110.854 78.1866 110.638 78.7819 110.593 79.3842C110.524 79.9705 110.592 80.507 110.799 80.9938C110.997 81.44 111.284 81.8042 111.66 82.0866Z" fill="white"/>
<path d="M243.625 106.503C243.343 105.399 243.302 104.573 243.502 104.025C243.727 103.471 244.084 103.079 244.574 102.849C245.089 102.613 245.617 102.426 246.157 102.288L265.155 97.4344C265.695 97.2965 266.235 97.2107 266.775 97.1772C267.316 97.1437 267.805 97.3194 268.243 97.7043C268.706 98.0828 269.082 98.8366 269.37 99.9657C269.659 101.095 269.688 101.924 269.457 102.454C269.257 103.002 268.912 103.39 268.421 103.62C267.931 103.85 267.403 104.037 266.839 104.181L247.841 109.035C247.301 109.173 246.761 109.258 246.22 109.292C245.68 109.325 245.178 109.153 244.715 108.774C244.277 108.389 243.914 107.632 243.625 106.503ZM239.76 91.3714C239.477 90.2668 239.436 89.4406 239.636 88.8928C239.861 88.3386 240.218 87.9466 240.709 87.7168C241.224 87.4806 241.751 87.2936 242.291 87.1557L261.289 82.3024C261.829 82.1644 262.369 82.0787 262.91 82.0452C263.45 82.0117 263.94 82.1874 264.378 82.5722C264.841 82.9508 265.216 83.7046 265.505 84.8337C265.793 85.9628 265.822 86.7921 265.591 87.3217C265.391 87.8696 265.046 88.2584 264.556 88.4883C264.065 88.7181 263.538 88.9052 262.973 89.0494L243.975 93.9027C243.435 94.0406 242.895 94.1263 242.355 94.1598C241.814 94.1933 241.312 94.0208 240.85 93.6422C240.411 93.2574 240.048 92.5004 239.76 91.3714ZM250.452 91.6206L256.196 90.1533L258.641 99.7259L252.897 101.193L250.452 91.6206ZM247.025 121.652C246.554 119.811 246.451 118.177 246.714 116.751C247.001 115.318 247.523 114.086 248.28 113.056C249.061 112.02 249.969 111.173 251.004 110.517C252.039 109.86 253.085 109.397 254.14 109.127C256.079 108.632 257.895 108.626 259.587 109.109C261.279 109.591 262.737 110.487 263.96 111.796C265.183 113.104 266.046 114.74 266.547 116.704C266.936 118.226 267.023 119.589 266.808 120.795C266.593 122 266.19 123.032 265.598 123.889C265.013 124.77 264.331 125.48 263.554 126.019C262.776 126.557 262.019 126.921 261.283 127.109C259.884 127.466 258.728 127.395 257.816 126.896C256.905 126.397 256.311 125.608 256.035 124.528L254.031 116.685C253.664 116.884 253.37 117.168 253.151 117.538C252.962 117.926 252.842 118.375 252.789 118.885C252.761 119.389 252.816 119.911 252.954 120.451C253.092 120.991 253.239 121.464 253.394 121.868C253.575 122.267 253.751 122.601 253.925 122.87C254.105 123.164 254.275 123.421 254.436 123.642C254.603 123.887 254.736 124.101 254.835 124.285C254.965 124.487 255.056 124.686 255.106 124.883C255.219 125.324 255.175 125.767 254.974 126.21C254.774 126.654 254.417 127.098 253.903 127.543C253.628 127.796 253.352 127.998 253.076 128.146C252.825 128.289 252.577 128.392 252.331 128.454C251.595 128.642 250.903 128.492 250.255 128.004C249.614 127.541 249.026 126.776 248.493 125.709C247.934 124.649 247.445 123.297 247.025 121.652ZM257.492 115.801L258.546 119.925C258.633 120.269 258.77 120.495 258.955 120.605C259.146 120.739 259.389 120.768 259.683 120.693C260.002 120.612 260.247 120.445 260.418 120.192C260.595 119.964 260.692 119.677 260.708 119.333C260.75 118.983 260.714 118.587 260.601 118.145C260.45 117.556 260.196 117.072 259.838 116.692C259.504 116.307 259.122 116.039 258.691 115.887C258.291 115.754 257.891 115.726 257.492 115.801ZM253.929 146.682C253.647 145.578 253.621 144.708 253.851 144.074C254.087 143.465 254.442 143.113 254.915 143.018L255.046 143.534C254.843 143.455 254.547 143.269 254.159 142.976C253.801 142.701 253.424 142.301 253.028 141.774C252.657 141.242 252.361 140.546 252.142 139.687C251.86 138.582 251.832 137.452 252.06 136.296C252.318 135.158 252.786 134.071 253.462 133.035C254.145 132.024 254.98 131.144 255.965 130.395C256.975 129.641 258.093 129.106 259.321 128.793C260.523 128.486 261.737 128.424 262.96 128.608C264.184 128.793 265.329 129.18 266.395 129.77C267.485 130.355 268.405 131.087 269.153 131.968C269.925 132.843 270.452 133.832 270.735 134.937C270.948 135.771 271.004 136.502 270.903 137.13C270.808 137.781 270.657 138.317 270.45 138.736C270.249 139.179 270.067 139.487 269.902 139.66L269.798 139.255C270.406 139.074 270.947 139.197 271.422 139.625C271.904 140.077 272.286 140.855 272.568 141.96C272.85 143.064 272.876 143.881 272.645 144.411C272.445 144.959 272.1 145.348 271.61 145.578C271.119 145.807 270.604 145.991 270.064 146.129L258.098 149.186C257.558 149.324 257.018 149.41 256.477 149.443C255.937 149.477 255.448 149.301 255.009 148.916C254.577 148.556 254.217 147.811 253.929 146.682ZM259.041 138.905C259.16 139.371 259.389 139.757 259.729 140.063C260.075 140.393 260.472 140.618 260.921 140.738C261.401 140.877 261.874 140.887 262.341 140.768C262.832 140.643 263.242 140.407 263.572 140.061C263.908 139.74 264.149 139.352 264.294 138.896C264.439 138.441 264.449 137.968 264.324 137.477C264.198 136.986 263.96 136.563 263.608 136.209C263.262 135.879 262.849 135.644 262.369 135.505C261.914 135.36 261.44 135.35 260.949 135.476C260.483 135.595 260.085 135.827 259.755 136.173C259.431 136.543 259.2 136.969 259.061 137.449C258.922 137.928 258.915 138.414 259.041 138.905ZM256.119 155.561C255.836 154.456 255.795 153.63 255.995 153.082C256.22 152.528 256.577 152.136 257.067 151.906C257.589 151.695 258.119 151.52 258.659 151.382L270.662 148.316C271.226 148.171 271.767 148.086 272.283 148.058C272.823 148.025 273.312 148.201 273.751 148.585C274.189 148.97 274.549 149.715 274.831 150.82C275.107 151.9 275.154 152.698 274.973 153.215C274.797 153.757 274.538 154.124 274.195 154.316C273.876 154.502 273.619 154.62 273.422 154.67L273.493 154.025C273.493 154.025 273.628 154.094 273.899 154.234C274.171 154.374 274.5 154.591 274.889 154.884C275.284 155.201 275.658 155.589 276.01 156.048C276.369 156.532 276.633 157.105 276.802 157.768C276.859 157.989 276.903 158.265 276.936 158.597C276.999 158.947 277.028 159.318 277.024 159.711C277.027 160.129 276.97 160.523 276.855 160.892C276.747 161.286 276.558 161.622 276.289 161.899C276.026 162.202 275.662 162.413 275.196 162.532C273.968 162.845 272.856 162.842 271.859 162.521C270.868 162.225 270.263 161.648 270.044 160.789C269.925 160.322 269.865 159.985 269.863 159.776C269.887 159.561 269.911 159.398 269.935 159.287C269.99 159.195 270.026 159.081 270.044 158.945C270.092 158.828 270.079 158.623 270.004 158.328C269.909 157.96 269.773 157.629 269.593 157.335C269.444 157.059 269.252 156.82 269.018 156.619C268.79 156.442 268.537 156.323 268.26 156.263C268.008 156.197 267.747 156.198 267.477 156.267L260.297 158.101C259.757 158.239 259.217 158.325 258.677 158.359C258.136 158.392 257.647 158.216 257.208 157.832C256.77 157.447 256.407 156.69 256.119 155.561ZM261.89 178.154C261.558 176.853 261.417 175.686 261.467 174.653C261.517 173.621 261.767 172.707 262.218 171.912C262.674 171.142 263.328 170.478 264.18 169.921C265.037 169.388 266.092 168.962 267.344 168.642L281.629 164.992C282.193 164.848 282.721 164.766 283.213 164.745C283.729 164.717 284.194 164.899 284.607 165.29C285.045 165.675 285.406 166.42 285.688 167.525C285.964 168.604 285.989 169.422 285.765 169.976C285.565 170.524 285.22 170.912 284.729 171.142C284.239 171.372 283.724 171.556 283.184 171.694L269.377 175.221C269.107 175.29 268.877 175.362 268.687 175.437C268.528 175.53 268.409 175.625 268.329 175.724C268.25 175.823 268.201 175.94 268.184 176.075C268.166 176.21 268.182 176.376 268.232 176.573C268.395 177.211 268.49 177.788 268.518 178.304C268.551 178.844 268.394 179.303 268.045 179.679C267.703 180.081 267.041 180.407 266.06 180.657C264.955 180.94 264.126 180.968 263.572 180.744C263.017 180.519 262.638 180.159 262.432 179.662C262.203 179.172 262.022 178.669 261.89 178.154ZM278.228 165.038L279.329 169.345L280.811 174.379C280.949 174.919 281.031 175.447 281.058 175.963C281.092 176.503 280.916 176.993 280.531 177.431C280.153 177.894 279.399 178.269 278.27 178.558C277.239 178.821 276.446 178.841 275.892 178.616C275.344 178.416 274.943 178.074 274.689 177.59C274.441 177.131 274.245 176.619 274.1 176.054L273.016 171.35L271.784 166.527C271.62 165.68 271.743 165.034 272.152 164.589C272.562 164.145 273.331 163.778 274.46 163.49C275.515 163.22 276.351 163.216 276.967 163.477C277.607 163.732 278.027 164.252 278.228 165.038Z" fill="white"/>
<path d="M172.985 349.621C183.716 348.308 190.78 333.873 188.761 317.379C186.742 300.886 176.405 288.581 165.674 289.895C154.942 291.208 147.879 305.643 149.898 322.137C151.916 338.63 162.253 350.935 172.985 349.621Z" fill="#0056D6"/>
<path d="M83.957 177.268C83.957 177.268 95.7538 224.483 112.713 240.665C112.713 240.665 108.329 248.077 106.207 258.515L90.7748 285.603L97.437 291.657C97.437 291.657 105.839 291.43 109.587 292.109C109.587 292.109 130.013 302.661 137.962 308.786C145.911 314.911 157.369 330.003 173.479 327.174C189.59 324.331 188.685 310.031 191.981 299.252C195.277 288.474 205.037 265.093 205.037 265.093L204.471 255.446C204.471 255.446 184.272 247.836 183.706 247.61C183.14 247.384 159.08 241.372 159.08 241.372L115.5 196.547L105.966 175.896L101.765 170.224L83.957 177.268Z" fill="#006BD6"/>
<path d="M98.0569 174.732C104.709 169.442 105.668 159.577 100.198 152.699C94.7282 145.82 84.901 144.532 78.2485 149.822C71.596 155.112 70.6374 164.977 76.1073 171.855C81.5772 178.734 91.4044 180.022 98.0569 174.732Z" fill="#01357A"/>
<path d="M106.841 170.592C105.497 172.529 102.4 174.354 101.353 175.09C98.2411 177.282 94.8039 179.107 91.1121 180.055C86.6565 181.2 79.1739 181.229 75.864 177.325C74.8598 176.136 74.987 174.524 76.2884 173.633C78.4667 172.133 80.9562 173.817 83.1769 174.199C88.3115 175.061 93.6865 173.025 98.2411 170.846C100.363 169.828 102.23 168.343 104.352 167.367C106.756 166.235 108.227 168.583 106.841 170.592Z" fill="#01357A"/>
<path d="M107.642 268.275C107.933 252.764 99.3816 240.024 88.5408 239.82C77.6999 239.616 68.6753 252.026 68.3836 267.537C68.0919 283.049 76.6437 295.788 87.4845 295.992C98.3254 296.196 107.35 283.787 107.642 268.275Z" fill="#0056D6"/>
<path d="M239.372 216.152C250.876 181.59 229.984 143.515 192.709 131.108C155.434 118.701 115.892 136.662 104.388 171.224C92.8842 205.786 113.776 243.862 151.051 256.268C188.326 268.675 227.868 250.714 239.372 216.152Z" fill="#0075D6"/>
<path d="M177.38 152.118C154.267 146.658 131.508 156.658 122.045 174.99L109.711 172.076C120.786 147.733 150.123 134.196 179.94 141.226C209.757 148.256 229.942 173.491 228.966 200.224L216.631 197.31C216.377 176.687 200.492 157.563 177.38 152.118Z" fill="white"/>
<path d="M158.143 234.582C181.256 240.042 204.015 230.041 213.478 211.71L225.812 214.623C214.737 238.967 185.4 252.503 155.583 245.473C125.766 238.443 105.581 213.209 106.557 186.475L118.892 189.389C119.146 210.012 135.031 229.122 158.143 234.582Z" fill="white"/>
<path d="M168.625 118.269L201.215 125.2C204.595 125.922 206.774 129.274 206.066 132.669C205.345 136.049 201.993 138.228 198.598 137.52L166.008 130.589C162.628 129.868 160.449 126.516 161.157 123.121C161.878 119.74 165.245 117.562 168.625 118.269Z" fill="#01357A"/>
<path d="M230.785 116.896C233.798 113.67 233.624 108.613 230.398 105.601C227.172 102.588 222.115 102.762 219.103 105.988C216.09 109.214 216.264 114.271 219.49 117.283C222.716 120.296 227.773 120.122 230.785 116.896Z" fill="#01357A"/>
<path d="M186.446 123.305L183.617 121.904C187.564 113.913 193.108 108.835 200.096 106.798C212.572 103.163 225.019 110.56 225.542 110.872L223.902 113.573C223.788 113.502 212.091 106.572 200.959 109.825C194.862 111.621 189.968 116.162 186.446 123.305Z" fill="#01357A"/>
<path d="M142.087 167.55L141.253 167.352C135.948 166.051 130.559 169.332 129.258 174.636L127.122 183.364C126.655 185.273 126.797 187.197 127.391 188.923C128.225 189.121 134.223 190.677 140.743 195.302C143.855 194.241 146.387 191.681 147.208 188.272L149.343 179.545C150.673 174.24 147.391 168.851 142.087 167.55Z" fill="white"/>
<path d="M142.822 173.377L142.143 173.207C139.399 172.543 136.598 174.24 135.919 176.984L134.066 184.58C133.401 187.324 135.099 190.125 137.843 190.804L138.522 190.973C141.266 191.638 144.066 189.941 144.745 187.197L146.598 179.601C147.263 176.843 145.566 174.042 142.822 173.377Z" fill="black"/>
<path d="M142.102 174.863C141.748 176.334 140.263 177.239 138.778 176.871C137.307 176.518 136.402 175.033 136.769 173.547C137.123 172.076 138.608 171.171 140.093 171.539C141.55 171.907 142.456 173.392 142.102 174.863Z" fill="white"/>
<path d="M202.258 182.585L203.093 182.769C208.425 183.929 211.834 189.248 210.66 194.58L208.737 203.364C208.312 205.288 207.35 206.943 206.049 208.244C205.215 208.06 199.146 206.815 191.254 208.103C188.934 205.783 187.774 202.374 188.524 198.951L190.447 190.167C191.621 184.82 196.926 181.425 202.258 182.585Z" fill="white"/>
<path d="M199.046 187.493L199.725 187.635C202.484 188.243 204.252 191.001 203.644 193.759L201.974 201.397C201.366 204.156 198.608 205.924 195.85 205.316L195.171 205.174C192.413 204.566 190.644 201.808 191.253 199.049L192.922 191.411C193.53 188.653 196.288 186.885 199.046 187.493Z" fill="black"/>
<path d="M199.033 189.163C198.708 190.648 199.642 192.105 201.127 192.43C202.612 192.756 204.069 191.822 204.394 190.337C204.72 188.852 203.786 187.395 202.301 187.07C200.83 186.744 199.359 187.678 199.033 189.163Z" fill="white"/>
<path d="M207.285 242.984C207.285 242.984 220.341 241.626 225.221 244.681C230.101 247.751 233.849 257.694 227.371 264.357C220.893 271.019 203.424 267.384 199.336 260.339L207.285 242.984Z" fill="#006BD6"/>
<path d="M196.464 262.391C204.487 262.391 210.991 255.887 210.991 247.864C210.991 239.841 204.487 233.337 196.464 233.337C188.441 233.337 181.938 239.841 181.938 247.864C181.938 255.887 188.441 262.391 196.464 262.391Z" fill="#01357A"/>
</svg>
