<svg class="icon" width="37" height="37" viewBox="0 0 37 37" fill="none" xmlns="http://www.w3.org/2000/svg"><path d="M32.9566 12.8936L22.1603 8.96563C20.0719 8.2058 17.7629 9.28283 17.0031 11.3712L11.4845 26.5395C10.7246 28.6279 11.8017 30.9368 13.8901 31.6967L24.6863 35.6247C26.7747 36.3845 29.0837 35.3075 29.8435 33.219L35.3622 18.0508C36.122 15.9624 35.045 13.6535 32.9566 12.8936Z" fill="#A5ED6E"></path><path d="M18.5081 1.75H7.02276C4.1107 1.75 1.75 4.1107 1.75 7.02276V23.1592C1.75 26.0712 4.1107 28.4319 7.02276 28.4319H18.5081C21.4202 28.4319 23.7809 26.0712 23.7809 23.1592V7.02276C23.7809 4.1107 21.4202 1.75 18.5081 1.75Z" fill="#58CC02" stroke="white" stroke-width="2.5"></path></svg>