<svg xmlns="http://www.w3.org/2000/svg" width="11" height="18" viewBox="0 0 11 18" fill="none" class="mdl-js">
<path d="M5.70459 11.05L3.27959 11.825C3.04626 11.675 2.83792 11.4583 2.65459 11.175C2.48792 10.875 2.40459 10.5583 2.40459 10.225C2.40459 9.89167 2.50459 9.63333 2.70459 9.45C2.90459 9.26667 3.19626 9.10833 3.57959 8.975L5.22959 8.45C6.12959 8.15 6.81292 7.75 7.27959 7.25C7.74626 6.75 7.97959 6.08333 7.97959 5.25C7.97959 4.51667 7.72126 3.88333 7.20459 3.35C6.70459 2.8 5.91292 2.525 4.82959 2.525C4.19626 2.525 3.59626 2.63333 3.02959 2.85C2.46292 3.05 1.94626 3.34167 1.47959 3.725C1.27959 3.575 1.10459 3.39167 0.95459 3.175C0.80459 2.94167 0.72959 2.66667 0.72959 2.35C0.72959 1.9 0.912923 1.50833 1.27959 1.175C1.66292 0.824999 2.18792 0.549999 2.85459 0.35C3.52126 0.149999 4.27126 0.0499992 5.10459 0.0499992C6.33792 0.0499992 7.38792 0.274999 8.25459 0.724999C9.13792 1.15833 9.81292 1.76667 10.2796 2.55C10.7463 3.33333 10.9796 4.23333 10.9796 5.25C10.9796 6.28333 10.7796 7.16667 10.3796 7.9C9.99626 8.61667 9.41292 9.225 8.62959 9.725C7.84626 10.225 6.87126 10.6667 5.70459 11.05ZM2.67959 15.575C2.67959 15.075 2.83792 14.6583 3.15459 14.325C3.47126 13.975 3.90459 13.8 4.45459 13.8C5.00459 13.8 5.43792 13.975 5.75459 14.325C6.07126 14.6583 6.22959 15.075 6.22959 15.575C6.22959 16.075 6.07126 16.4917 5.75459 16.825C5.43792 17.1583 5.00459 17.325 4.45459 17.325C3.90459 17.325 3.47126 17.1583 3.15459 16.825C2.83792 16.4917 2.67959 16.075 2.67959 15.575Z" fill="#777777"/>
</svg>