<svg width="173" height="233" viewBox="0 0 173 233" fill="none" xmlns="http://www.w3.org/2000/svg">
<path d="M71.6959 13.9986C84.8762 22.0228 93.3598 41.5557 85.3569 54.7012C77.354 67.8467 58.6135 77.7114 45.4332 69.6873C32.2529 61.6632 22.4005 43.202 30.4034 30.0565C38.4064 16.911 58.5156 5.97449 71.6959 13.9986Z" fill="#4A82C3"/>
<path d="M111.948 91.0993C138.858 107.482 156.179 147.362 139.839 174.201C123.5 201.04 85.2379 221.181 58.3278 204.798C31.4177 188.415 11.3022 150.723 27.6417 123.884C43.9812 97.0455 85.0379 74.7166 111.948 91.0993Z" fill="#203A90"/>
<path d="M152.34 161.447C146.924 175.976 135.36 189.322 121.507 197.67C107.653 206.019 91.6422 209.298 77.2903 203.948C62.7698 198.536 48.824 187.485 39.8814 174.151C30.9384 160.817 27.0788 145.334 32.4325 130.971C37.8613 116.407 48.7831 102.475 61.9709 93.5546C75.158 84.6341 90.4814 80.7998 104.805 86.1391C119.319 91.5492 133.941 103.181 143.56 117.113C153.187 131.055 157.683 147.112 152.34 161.447Z" stroke="black" stroke-opacity="0.6" stroke-width="2"/>
</svg>
