<svg width="212" height="201" viewBox="0 0 212 201" fill="none" xmlns="http://www.w3.org/2000/svg">
<path d="M183.831 131.499C197.011 139.523 205.495 159.056 197.492 172.201C189.489 185.347 170.749 195.211 157.568 187.187C144.388 179.163 134.536 160.702 142.539 147.557C150.542 134.411 170.651 123.474 183.831 131.499Z" fill="#4A82C3"/>
<path d="M150.5 69C150.5 106.832 120.332 149.5 82.5 149.5C44.6685 149.5 0 122.832 0 85C0 47.1685 26.1685 3 64 3C101.832 3 150.5 31.1685 150.5 69Z" fill="#203A90"/>
<path d="M159.5 66C159.5 84.6683 152.048 104.577 139.905 119.814C127.76 135.051 111.023 145.5 92.5 145.5C73.7979 145.5 53.3759 138.901 37.6458 127.624C21.915 116.346 11 100.49 11 82C11 63.2943 17.4761 42.9973 28.6268 27.3946C39.7769 11.7928 55.507 1 74 1C92.6951 1 114.123 7.96986 130.865 19.6337C147.618 31.3051 159.5 47.5391 159.5 66Z" stroke="black" stroke-opacity="0.6" stroke-width="2"/>
</svg>
