<svg width="16" height="17" viewBox="0 0 16 17" fill="none" xmlns="http://www.w3.org/2000/svg">
<path d="M10.0662 1.37044C9.79703 1.09498 9.47551 0.8761 9.12055 0.726662C8.76558 0.577225 8.38433 0.500244 7.9992 0.500244C7.61406 0.500244 7.23281 0.577225 6.87784 0.726662C6.52288 0.8761 6.20137 1.09498 5.9322 1.37044L5.31019 2.00844L4.4202 1.99744C4.03495 1.99288 3.65267 2.0654 3.29586 2.21073C2.93904 2.35606 2.61489 2.57127 2.34245 2.8437C2.07002 3.11613 1.85481 3.44029 1.70948 3.7971C1.56415 4.15392 1.49164 4.53619 1.4962 4.92144L1.5062 5.81144L0.870195 6.43344C0.594736 6.70261 0.375856 7.02412 0.226418 7.37909C0.0769807 7.73405 0 8.1153 0 8.50044C0 8.88558 0.0769807 9.26683 0.226418 9.62179C0.375856 9.97676 0.594736 10.2983 0.870195 10.5674L1.5072 11.1894L1.4962 12.0794C1.49164 12.4647 1.56415 12.847 1.70948 13.2038C1.85481 13.5606 2.07002 13.8847 2.34245 14.1572C2.61489 14.4296 2.93904 14.6448 3.29586 14.7902C3.65267 14.9355 4.03495 15.008 4.4202 15.0034L5.31019 14.9934L5.9322 15.6294C6.20137 15.9049 6.52288 16.1238 6.87784 16.2732C7.23281 16.4227 7.61406 16.4996 7.9992 16.4996C8.38433 16.4996 8.76558 16.4227 9.12055 16.2732C9.47551 16.1238 9.79703 15.9049 10.0662 15.6294L10.6882 14.9924L11.5782 15.0034C11.9634 15.008 12.3457 14.9355 12.7025 14.7902C13.0593 14.6448 13.3835 14.4296 13.6559 14.1572C13.9284 13.8847 14.1436 13.5606 14.2889 13.2038C14.4342 12.847 14.5068 12.4647 14.5022 12.0794L14.4922 11.1894L15.1282 10.5674C15.4037 10.2983 15.6225 9.97676 15.772 9.62179C15.9214 9.26683 15.9984 8.88558 15.9984 8.50044C15.9984 8.1153 15.9214 7.73405 15.772 7.37909C15.6225 7.02412 15.4037 6.70261 15.1282 6.43344L14.4912 5.81144L14.5022 4.92144C14.5068 4.53619 14.4342 4.15392 14.2889 3.7971C14.1436 3.44029 13.9284 3.11613 13.6559 2.8437C13.3835 2.57127 13.0593 2.35606 12.7025 2.21073C12.3457 2.0654 11.9634 1.99288 11.5782 1.99744L10.6882 2.00744L10.0662 1.37044ZM10.3532 7.35444L7.3532 10.3544C7.30675 10.401 7.25157 10.4379 7.19083 10.4632C7.13008 10.4884 7.06496 10.5013 6.9992 10.5013C6.93343 10.5013 6.86831 10.4884 6.80756 10.4632C6.74682 10.4379 6.69164 10.401 6.6452 10.3544L5.1452 8.85444C5.09871 8.80795 5.06183 8.75276 5.03667 8.69202C5.01151 8.63128 4.99856 8.56618 4.99856 8.50044C4.99856 8.4347 5.01151 8.3696 5.03667 8.30886C5.06183 8.24812 5.09871 8.19293 5.1452 8.14644C5.19168 8.09995 5.24687 8.06308 5.30761 8.03792C5.36835 8.01276 5.43345 7.99981 5.4992 7.99981C5.56494 7.99981 5.63004 8.01276 5.69078 8.03792C5.75152 8.06308 5.80671 8.09995 5.8532 8.14644L6.9992 9.29344L9.6452 6.64644C9.73908 6.55255 9.86642 6.49981 9.9992 6.49981C10.132 6.49981 10.2593 6.55255 10.3532 6.64644C10.4471 6.74033 10.4998 6.86766 10.4998 7.00044C10.4998 7.13322 10.4471 7.26055 10.3532 7.35444Z" fill="#4A82C3"/>
</svg>
