<svg width="55" height="55" viewBox="0 0 55 55" fill="none" xmlns="http://www.w3.org/2000/svg">
<rect width="55" height="55" rx="27.5" fill="white"/>
<path d="M27.5 27.5L12.58 21.54L13.5 43.5H9.5L10.46 20.68L7.5 19.5L27.5 11.5L47.5 19.5L27.5 27.5ZM27.5 17.5C26.4 17.5 25.5 17.94 25.5 18.5C25.5 19.06 26.4 19.5 27.5 19.5C28.6 19.5 29.5 19.06 29.5 18.5C29.5 17.94 28.6 17.5 27.5 17.5ZM27.5 29.5L38.64 25.04C40.06 26.92 41.04 29.18 41.36 31.64C40.76 31.56 40.14 31.5 39.5 31.5C34.4 31.5 29.94 34.24 27.5 38.32C26.2609 36.242 24.5038 34.5212 22.4004 33.3258C20.297 32.1304 17.9194 31.5013 15.5 31.5C14.86 31.5 14.24 31.56 13.64 31.64C13.96 29.18 14.94 26.92 16.36 25.04L27.5 29.5Z" fill="#203A90"/>
</svg>
