<svg width="133" height="28" viewBox="0 0 133 28" fill="none" xmlns="http://www.w3.org/2000/svg">
<path d="M12.9727 19.2578V22H3.89062V19.2578H12.9727ZM5.03906 4.9375V22H1.52344V4.9375H5.03906ZM11.7891 11.8867V14.5586H3.89062V11.8867H11.7891ZM12.9609 4.9375V7.69141H3.89062V4.9375H12.9609ZM28.9102 4.9375V22H25.3945L18.5391 10.5625V22H15.0234V4.9375H18.5391L25.4062 16.3867V4.9375H28.9102ZM45.4922 13.082V19.8438C45.2266 20.1641 44.8164 20.5117 44.2617 20.8867C43.707 21.2539 42.9922 21.5703 42.1172 21.8359C41.2422 22.1016 40.1836 22.2344 38.9414 22.2344C37.8398 22.2344 36.8359 22.0547 35.9297 21.6953C35.0234 21.3281 34.2422 20.793 33.5859 20.0898C32.9375 19.3867 32.4375 18.5273 32.0859 17.5117C31.7344 16.4883 31.5586 15.3203 31.5586 14.0078V12.9414C31.5586 11.6289 31.7266 10.4609 32.0625 9.4375C32.4062 8.41406 32.8945 7.55078 33.5273 6.84766C34.1602 6.14453 34.9141 5.60937 35.7891 5.24219C36.6641 4.875 37.6367 4.69141 38.707 4.69141C40.1914 4.69141 41.4102 4.93359 42.3633 5.41797C43.3164 5.89453 44.043 6.55859 44.543 7.41016C45.0508 8.25391 45.3633 9.22266 45.4805 10.3164H42.0703C41.9844 9.73828 41.8203 9.23438 41.5781 8.80469C41.3359 8.375 40.9883 8.03906 40.5352 7.79688C40.0898 7.55469 39.5117 7.43359 38.8008 7.43359C38.2148 7.43359 37.6914 7.55469 37.2305 7.79688C36.7773 8.03125 36.3945 8.37891 36.082 8.83984C35.7695 9.30078 35.5312 9.87109 35.3672 10.5508C35.2031 11.2305 35.1211 12.0195 35.1211 12.918V14.0078C35.1211 14.8984 35.207 15.6875 35.3789 16.375C35.5508 17.0547 35.8047 17.6289 36.1406 18.0977C36.4844 18.5586 36.9062 18.9062 37.4062 19.1406C37.9062 19.375 38.4883 19.4922 39.1523 19.4922C39.707 19.4922 40.168 19.4453 40.5352 19.3516C40.9102 19.2578 41.2109 19.1445 41.4375 19.0117C41.6719 18.8711 41.8516 18.7383 41.9766 18.6133V15.5898H38.7656V13.082H45.4922Z" fill="white"/>
<path d="M59 14L50.048 9.53L50.6 26H48.2L48.776 8.885L47 8L59 2L71 8L59 14ZM59 6.5C58.34 6.5 57.8 6.83 57.8 7.25C57.8 7.67 58.34 8 59 8C59.66 8 60.2 7.67 60.2 7.25C60.2 6.83 59.66 6.5 59 6.5ZM59 15.5L65.684 12.155C66.536 13.565 67.124 15.26 67.316 17.105C66.956 17.045 66.584 17 66.2 17C63.14 17 60.464 19.055 59 22.115C58.2565 20.5565 57.2023 19.2659 55.9402 18.3693C54.6782 17.4728 53.2516 17.001 51.8 17C51.416 17 51.044 17.045 50.684 17.105C50.876 15.26 51.464 13.565 52.316 12.155L59 15.5Z" fill="#203A90"/>
<path d="M83.4922 19.2578V22H74.9023V19.2578H83.4922ZM76.0391 4.9375V22H72.5234V4.9375H76.0391ZM92.6797 7.85547L88.0391 22H84.3008L90.6406 4.9375H93.0195L92.6797 7.85547ZM96.5352 22L91.8828 7.85547L91.5078 4.9375H93.9102L100.285 22H96.5352ZM96.3242 15.6484V18.4023H87.3125V15.6484H96.3242ZM110.75 17.5352C110.75 17.2305 110.703 16.957 110.609 16.7148C110.523 16.4648 110.359 16.2383 110.117 16.0352C109.875 15.8242 109.535 15.6172 109.098 15.4141C108.66 15.2109 108.094 15 107.398 14.7812C106.625 14.5312 105.891 14.25 105.195 13.9375C104.508 13.625 103.898 13.2617 103.367 12.8477C102.844 12.4258 102.43 11.9375 102.125 11.3828C101.828 10.8281 101.68 10.1836 101.68 9.44922C101.68 8.73828 101.836 8.09375 102.148 7.51562C102.461 6.92969 102.898 6.42969 103.461 6.01562C104.023 5.59375 104.688 5.26953 105.453 5.04297C106.227 4.81641 107.074 4.70312 107.996 4.70312C109.254 4.70312 110.352 4.92969 111.289 5.38281C112.227 5.83594 112.953 6.45703 113.469 7.24609C113.992 8.03516 114.254 8.9375 114.254 9.95312H110.762C110.762 9.45312 110.656 9.01562 110.445 8.64062C110.242 8.25781 109.93 7.95703 109.508 7.73828C109.094 7.51953 108.57 7.41016 107.938 7.41016C107.328 7.41016 106.82 7.50391 106.414 7.69141C106.008 7.87109 105.703 8.11719 105.5 8.42969C105.297 8.73438 105.195 9.07812 105.195 9.46094C105.195 9.75 105.266 10.0117 105.406 10.2461C105.555 10.4805 105.773 10.6992 106.062 10.9023C106.352 11.1055 106.707 11.2969 107.129 11.4766C107.551 11.6562 108.039 11.832 108.594 12.0039C109.523 12.2852 110.34 12.6016 111.043 12.9531C111.754 13.3047 112.348 13.6992 112.824 14.1367C113.301 14.5742 113.66 15.0703 113.902 15.625C114.145 16.1797 114.266 16.8086 114.266 17.5117C114.266 18.2539 114.121 18.918 113.832 19.5039C113.543 20.0898 113.125 20.5859 112.578 20.9922C112.031 21.3984 111.379 21.707 110.621 21.918C109.863 22.1289 109.016 22.2344 108.078 22.2344C107.234 22.2344 106.402 22.125 105.582 21.9062C104.762 21.6797 104.016 21.3398 103.344 20.8867C102.68 20.4336 102.148 19.8555 101.75 19.1523C101.352 18.4492 101.152 17.6172 101.152 16.6562H104.68C104.68 17.1875 104.762 17.6367 104.926 18.0039C105.09 18.3711 105.32 18.668 105.617 18.8945C105.922 19.1211 106.281 19.2852 106.695 19.3867C107.117 19.4883 107.578 19.5391 108.078 19.5391C108.688 19.5391 109.188 19.4531 109.578 19.2812C109.977 19.1094 110.27 18.8711 110.457 18.5664C110.652 18.2617 110.75 17.918 110.75 17.5352ZM128.035 11.8867V14.6289H119.129V11.8867H128.035ZM120.172 4.9375V22H116.656V4.9375H120.172ZM130.543 4.9375V22H127.039V4.9375H130.543Z" fill="#203A90"/>
</svg>
