<svg width="40" height="40" viewBox="0 0 40 40" fill="none" xmlns="http://www.w3.org/2000/svg">
<mask id="mask0_278_14483" style="mask-type:luminance" maskUnits="userSpaceOnUse" x="0" y="0" width="40" height="40">
<path d="M40 20C40 8.95431 31.0457 0 20 0C8.95431 0 0 8.95431 0 20C0 31.0457 8.95431 40 20 40C31.0457 40 40 31.0457 40 20Z" fill="white"/>
</mask>
<g mask="url(#mask0_278_14483)">
<path d="M40 20C40 31.0456 31.0456 40 20 40C8.9543 40 0 31.0456 0 20C0 8.9543 8.9543 0 20 0C31.0456 0 40 8.9543 40 20Z" fill="#54565A"/>
<path d="M20.0245 25.2216C21.9843 25.2216 23.8637 24.4432 25.2495 23.0574C26.6353 21.6718 27.4137 19.7922 27.4137 17.8325C27.4137 15.8728 26.6353 13.9933 25.2495 12.6076C23.8637 11.2219 21.9843 10.4434 20.0245 10.4434C18.0648 10.4434 16.1853 11.2219 14.7996 12.6076C13.4139 13.9933 12.6354 15.8728 12.6354 17.8325C12.6354 19.7922 13.4139 21.6718 14.7996 23.0574C16.1853 24.4432 18.0648 25.2216 20.0245 25.2216ZM17.3864 27.9926C11.7002 27.9926 7.09351 32.5994 7.09351 38.2854C7.09351 39.2322 7.86129 40 8.80803 40H31.2411C32.1877 40 32.9555 39.2322 32.9555 38.2854C32.9555 32.5994 28.3489 27.9926 22.6627 27.9926H17.3864Z" fill="white"/>
</g>
</svg>
